<svg width="16" height="15" viewBox="0 0 16 15" fill="none" xmlns="http://www.w3.org/2000/svg">
<path d="M5.10002 8.59998L8.00002 5.69998L10.9 8.59998" stroke="#32E6BE" stroke-miterlimit="10"/>
<path d="M5.10002 8.59998L8.00002 5.69998L10.9 8.59998" stroke="#F5F5F5" stroke-miterlimit="10"/>
<path d="M8 0.500001C4.13401 0.500001 0.999999 3.63401 0.999999 7.5C1 11.366 4.13401 14.5 8 14.5C11.866 14.5 15 11.366 15 7.5C15 3.63401 11.866 0.5 8 0.500001Z" stroke="#32E6BE" stroke-miterlimit="10"/>
<path d="M8 0.500001C4.13401 0.500001 0.999999 3.63401 0.999999 7.5C1 11.366 4.13401 14.5 8 14.5C11.866 14.5 15 11.366 15 7.5C15 3.63401 11.866 0.5 8 0.500001Z" stroke="#F5F5F5" stroke-miterlimit="10"/>
</svg>
