<?xml version="1.0" encoding="utf-8"?>
<!-- Generator: Adobe Illustrator 24.2.1, SVG Export Plug-In . SVG Version: 6.00 Build 0)  -->
<svg version="1.1" id="Layer_1" xmlns="http://www.w3.org/2000/svg" xmlns:xlink="http://www.w3.org/1999/xlink" x="0px" y="0px"
	 viewBox="0 0 12.7 12.2" style="enable-background:new 0 0 12.7 12.2;" xml:space="preserve">
<style type="text/css">
	.st0{fill:#FFFFFF;}
</style>
<path class="st0" d="M12.1,11.3L8.5,7.7c0.7-0.8,1.1-1.8,1.1-2.9c0-1.3-0.5-2.4-1.4-3.3c-1.8-1.8-4.8-1.8-6.6,0s-1.8,4.8,0,6.6
	c0.8,0.9,2,1.4,3.2,1.4c1,0,2.1-0.4,2.9-1.1l3.6,3.6L12.1,11.3z M2.2,7.4C0.8,6,0.8,3.6,2.2,2.2s3.8-1.4,5.2,0
	c0.7,0.7,1.1,1.6,1.1,2.6S8.1,6.7,7.4,7.4C6,8.8,3.7,8.8,2.2,7.4z"/>
</svg>
