<?xml version="1.0" encoding="utf-8"?>
<!-- Generator: Adobe Illustrator 24.2.1, SVG Export Plug-In . SVG Version: 6.00 Build 0)  -->
<svg version="1.1" id="Layer_1" xmlns="http://www.w3.org/2000/svg" xmlns:xlink="http://www.w3.org/1999/xlink" x="0px" y="0px"
	 viewBox="0 0 186 38.2" style="enable-background:new 0 0 186 38.2;" xml:space="preserve">
<style type="text/css">
	.st0{fill:#B68AD4;}
	.st1{fill:#F5F5F5;}
</style>
<path class="st0" d="M42.9,0.7H11.6L1,18h12.7L1.6,37.7h31.2l10.6-17.3H30.8L42.9,0.7z M35.1,5L23,24.8h12.8l-5.3,8.6H9.4l12-19.8
	H8.7L14,5L35.1,5"/>
<path class="st1" d="M62.3,16c0.5-0.7,1-1.3,1.6-1.8v-0.1c-0.7,0-1.3,0-1.9,0h-6.1v-3.3h12.9v2.9l-6.7,8.7c-0.5,0.7-1.1,1.4-1.7,2
	v0.1c0.7,0,1.4,0,2,0H69v3.3H55.5v-2.8L62.3,16z"/>
<path class="st1" d="M85.9,20.2H74.8c0.1,3,1.6,4.5,3.9,4.5s3.2-1.4,3.4-2.8h3.7C85.6,25.1,83,28,78.6,28c-4.8,0-7.9-3.1-7.9-8.7
	c0-5.7,3.5-8.9,7.8-8.9c4.5,0,7.4,3,7.4,8.2C85.9,19.1,85.9,19.6,85.9,20.2z M74.8,17.5H82c-0.2-2.7-1.6-3.9-3.6-3.9
	C76.6,13.6,75.1,14.9,74.8,17.5z"/>
<path class="st1" d="M89.9,14.1h-2.2v-3.2h0.8c1.4,0,1.7-0.4,1.7-2.2V5.4h3.7v5.3h4.2v3.3h-4.2v8c0,1.9,0.6,2.5,2.1,2.5
	c0.8,0,1.6-0.2,2.1-0.5v3.3c-0.7,0.3-1.8,0.6-3.2,0.6c-3.6,0-5.1-1.5-5.1-5.3L89.9,14.1L89.9,14.1z"/>
<path class="st1" d="M110.2,17.9v-1.2c0-2.1-0.9-3.1-2.8-3.1c-1.8,0-3,0.9-3,2.6c0,0.2,0,0.4,0.1,0.7h-3.8c0-0.3,0-0.5,0-0.8
	c0-3.4,2.8-5.6,6.8-5.6c4.4,0,6.7,2.3,6.7,6.3v5.7c0,1.8,0.2,2.2,0.9,2.2c0.3,0,0.5-0.1,0.7-0.2v3c-0.3,0.2-1.3,0.5-2.2,0.5
	c-2.4,0-3.1-0.8-3.3-2.8h-0.1c-0.9,1.7-2.6,2.8-5.1,2.8c-3.3,0-5.2-1.7-5.2-4.6C100,18.9,104.6,18,110.2,17.9z M110.2,20.4
	c-4.1,0.1-6.2,0.7-6.2,2.6c0,1.3,0.7,2,2.4,2c1.6,0,3.1-0.9,3.7-2.8L110.2,20.4L110.2,20.4z"/>
<path class="st1" d="M121.4,22.5c0.1,1.7,1.1,2.6,3.1,2.6c1.9,0,3-0.8,3-1.8c0-1.5-0.9-1.7-3.3-2.4c-3.9-1-6.5-1.7-6.5-5.3
	c0-3.1,2.8-5.1,6.7-5.1c4.3,0,6.9,2,6.7,5.4h-3.8c0-1.6-1-2.5-2.8-2.5c-1.7,0-2.8,0.7-2.8,1.8c0,1.4,1,1.8,3.2,2.3
	c4.1,0.9,6.6,1.8,6.6,5.3c0,3.2-2.8,5.3-7,5.3c-4.2,0-6.9-1.8-6.9-5.5L121.4,22.5L121.4,22.5z"/>
<path class="st1" d="M149.2,20.2h-11.1c0.1,3,1.6,4.5,3.9,4.5c2.2,0,3.2-1.4,3.4-2.8h3.7c-0.2,3.2-2.8,6.2-7.2,6.2
	c-4.8,0-7.9-3.1-7.9-8.7c0-5.7,3.5-8.9,7.8-8.9c4.5,0,7.4,3,7.4,8.2C149.2,19.1,149.2,19.6,149.2,20.2z M138.1,17.5h7.2
	c-0.2-2.7-1.6-3.9-3.6-3.9C139.9,13.6,138.4,14.9,138.1,17.5z"/>
<path class="st1" d="M167.1,20.2H156c0.1,3,1.6,4.5,3.9,4.5s3.2-1.4,3.4-2.8h3.7c-0.2,3.2-2.8,6.2-7.2,6.2c-4.8,0-7.9-3.1-7.9-8.7
	c0-5.7,3.5-8.9,7.8-8.9c4.5,0,7.4,3,7.4,8.2C167.1,19.1,167.1,19.6,167.1,20.2z M156,17.5h7.2c-0.2-2.7-1.6-3.9-3.6-3.9
	C157.8,13.6,156.3,14.9,156,17.5z"/>
<path class="st1" d="M177,20.3l-2.4,2.5v4.9h-4.1V3.8h4.1v14.4h0.1c0.5-0.7,0.9-1,1.4-1.6l5.1-5.8h4.5l-5.7,6.8l6,10.2h-4.7
	L177,20.3z"/>
</svg>
