<?xml version="1.0" encoding="utf-8"?>
<!-- Generator: Adobe Illustrator 16.0.0, SVG Export Plug-In . SVG Version: 6.00 Build 0)  -->
<!DOCTYPE svg PUBLIC "-//W3C//DTD SVG 1.1//EN" "http://www.w3.org/Graphics/SVG/1.1/DTD/svg11.dtd">
<svg version="1.1" id="Layer_1" xmlns="http://www.w3.org/2000/svg" xmlns:xlink="http://www.w3.org/1999/xlink" x="0px" y="0px"
	 width="500px" height="150px" viewBox="0 0 500 150" enable-background="new 0 0 500 150" xml:space="preserve">
<g>
	<path fill="#53CFE0" d="M68.131,71.915c0,5.846-4.739,10.584-10.584,10.584s-10.583-4.738-10.583-10.584
		c0-5.844,4.738-10.584,10.583-10.584S68.131,66.071,68.131,71.915"/>
	<path fill="#6B79B5" d="M24.227,90.682c-2.516,0-4.882-1.538-5.82-4.028c-4.004-10.638-3.563-22.16,1.243-32.446
		c4.805-10.284,13.359-18.015,24.087-21.769c3.241-1.136,6.789,0.573,7.922,3.815c1.135,3.24-0.574,6.788-3.816,7.921
		c-7.539,2.639-13.551,8.071-16.927,15.298c-3.376,7.225-3.685,15.323-0.871,22.799c1.21,3.214-0.415,6.801-3.628,8.009
		C25.696,90.553,24.955,90.682,24.227,90.682"/>
	<g>
		<path fill="#663399" d="M80.777,51.145c-1.436,0-2.878-0.494-4.051-1.503c-2.045-1.76-4.311-3.226-6.735-4.356
			c-2.425-1.134-5.003-1.931-7.664-2.372c-3.388-0.561-5.681-3.761-5.12-7.149c0.56-3.389,3.763-5.682,7.15-5.12
			c3.78,0.626,7.447,1.76,10.897,3.374c3.451,1.611,6.675,3.696,9.58,6.194c2.604,2.238,2.899,6.166,0.659,8.77
			C84.264,50.41,82.525,51.145,80.777,51.145"/>
		<path fill="#663399" d="M51.761,113.271c-0.337,0-0.679-0.028-1.023-0.084c-3.776-0.626-7.443-1.76-10.896-3.374
			c-3.451-1.61-6.674-3.695-9.581-6.192c-2.604-2.241-2.9-6.166-0.66-8.771c2.237-2.604,6.163-2.9,8.769-0.661
			c2.045,1.76,4.311,3.227,6.734,4.357c2.427,1.133,5.005,1.932,7.664,2.371c3.388,0.56,5.68,3.761,5.119,7.149
			C57.384,111.112,54.748,113.271,51.761,113.271"/>
		<path fill="#663399" d="M69.304,111.744c-2.568,0-4.972-1.604-5.869-4.166c-1.135-3.241,0.573-6.788,3.814-7.923
			c7.542-2.639,13.553-8.071,16.929-15.298c3.376-7.225,3.686-15.323,0.871-22.797c-1.21-3.215,0.414-6.802,3.627-8.011
			c3.215-1.207,6.801,0.413,8.01,3.627c4.006,10.637,3.565,22.16-1.241,32.446c-4.805,10.284-13.359,18.015-24.087,21.77
			C70.679,111.632,69.985,111.744,69.304,111.744"/>
	</g>
</g>
<g>
	<path fill="#663399" d="M165.235,56.862c-0.461,0.585-0.909,1.044-1.348,1.377c-0.439,0.336-1.076,0.503-1.913,0.503
		c-0.792,0-1.565-0.24-2.319-0.721c-0.75-0.48-1.65-1.023-2.694-1.631c-1.044-0.605-2.287-1.147-3.729-1.629
		c-1.44-0.48-3.229-0.722-5.358-0.722c-2.717,0-5.1,0.492-7.146,1.474c-2.048,0.982-3.751,2.393-5.109,4.23
		c-1.357,1.84-2.371,4.064-3.038,6.676c-0.67,2.611-1.004,5.568-1.004,8.869c0,3.427,0.365,6.478,1.097,9.151
		c0.73,2.675,1.786,4.92,3.166,6.738c1.379,1.816,3.05,3.196,5.015,4.136c1.962,0.941,4.177,1.411,6.644,1.411
		c2.464,0,4.459-0.304,5.984-0.909c1.526-0.605,2.811-1.273,3.855-2.006c1.044-0.73,1.953-1.399,2.728-2.005
		c0.771-0.605,1.64-0.91,2.601-0.91c1.255,0,2.194,0.481,2.82,1.442l4.45,5.642c-1.713,2.005-3.572,3.687-5.578,5.045
		s-4.085,2.444-6.237,3.259c-2.151,0.815-4.365,1.39-6.644,1.725c-2.278,0.334-4.544,0.501-6.801,0.501
		c-3.97,0-7.709-0.742-11.22-2.226c-3.51-1.481-6.58-3.645-9.214-6.487c-2.632-2.841-4.712-6.319-6.236-10.436
		c-1.525-4.114-2.288-8.807-2.288-14.071c0-4.722,0.679-9.099,2.038-13.132c1.356-4.032,3.353-7.521,5.984-10.467
		c2.633-2.946,5.894-5.254,9.779-6.926c3.885-1.672,8.356-2.508,13.413-2.508c4.805,0,9.015,0.773,12.63,2.319
		c3.613,1.546,6.863,3.761,9.746,6.644L165.235,56.862z"/>
	<path fill="#663399" d="M195.07,50.155c2.507-2.341,5.266-4.242,8.273-5.704c3.009-1.463,6.538-2.194,10.593-2.194
		c3.511,0,6.622,0.595,9.34,1.787c2.716,1.189,4.982,2.862,6.8,5.014c1.818,2.152,3.197,4.723,4.138,7.709
		c0.94,2.988,1.41,6.279,1.41,9.873v40.929h-15.481V66.64c0-3.927-0.899-6.967-2.695-9.12c-1.798-2.152-4.535-3.229-8.213-3.229
		c-2.673,0-5.181,0.606-7.521,1.818s-4.555,2.862-6.644,4.952v46.507h-15.482V14.427h15.482V50.155z"/>
	<path fill="#663399" d="M305.698,43.259v64.31h-9.464c-2.048,0-3.344-0.939-3.887-2.82l-1.064-5.14
		c-2.633,2.675-5.538,4.838-8.713,6.487c-3.177,1.65-6.916,2.477-11.22,2.477c-3.511,0-6.612-0.597-9.309-1.787
		c-2.695-1.19-4.963-2.872-6.8-5.045c-1.84-2.174-3.229-4.754-4.169-7.742c-0.94-2.986-1.41-6.276-1.41-9.87V43.259h15.482v40.869
		c0,3.927,0.908,6.967,2.727,9.119c1.817,2.152,4.543,3.227,8.179,3.227c2.674,0,5.181-0.594,7.521-1.786
		c2.341-1.189,4.555-2.83,6.645-4.919v-46.51H305.698z"/>
	<path fill="#663399" d="M320.992,107.568v-64.31h9.465c2.006,0,3.322,0.941,3.948,2.821l1.003,4.765
		c1.129-1.255,2.31-2.403,3.542-3.448c1.231-1.044,2.549-1.942,3.949-2.695c1.399-0.752,2.903-1.347,4.513-1.786
		c1.608-0.438,3.374-0.658,5.296-0.658c4.053,0,7.385,1.098,9.999,3.291c2.61,2.192,4.563,5.107,5.859,8.743
		c1.003-2.13,2.257-3.958,3.761-5.484c1.505-1.524,3.154-2.768,4.951-3.729c1.797-0.96,3.709-1.671,5.735-2.131
		c2.026-0.459,4.063-0.689,6.112-0.689c3.551,0,6.706,0.544,9.463,1.631c2.759,1.086,5.078,2.673,6.958,4.763
		c1.882,2.09,3.312,4.638,4.294,7.646c0.981,3.009,1.473,6.457,1.473,10.343v40.929h-15.481V66.64c0-4.096-0.899-7.178-2.695-9.246
		c-1.797-2.067-4.43-3.103-7.897-3.103c-1.589,0-3.062,0.271-4.419,0.815c-1.358,0.543-2.55,1.326-3.572,2.351
		c-1.025,1.023-1.829,2.31-2.414,3.854c-0.586,1.547-0.878,3.322-0.878,5.329v40.929h-15.544V66.64c0-4.304-0.867-7.438-2.602-9.403
		c-1.734-1.963-4.272-2.945-7.614-2.945c-2.258,0-4.357,0.555-6.3,1.661c-1.943,1.107-3.751,2.623-5.422,4.545v47.071H320.992z"/>
	<path fill="#663399" d="M440.647,52.035c2.632-2.967,5.619-5.369,8.963-7.208c3.343-1.839,7.271-2.758,11.783-2.758
		c3.51,0,6.717,0.731,9.622,2.192c2.903,1.464,5.411,3.585,7.521,6.363c2.11,2.778,3.739,6.204,4.89,10.279
		c1.148,4.074,1.724,8.743,1.724,14.009c0,4.806-0.648,9.256-1.943,13.351c-1.296,4.096-3.145,7.646-5.548,10.655
		c-2.402,3.009-5.306,5.358-8.712,7.051s-7.219,2.539-11.439,2.539c-3.594,0-6.665-0.555-9.213-1.661
		c-2.55-1.106-4.827-2.642-6.833-4.607v26.327h-15.48V43.259h9.463c2.007,0,3.322,0.941,3.949,2.821L440.647,52.035z
		 M441.461,90.896c1.756,2.132,3.668,3.636,5.736,4.514c2.067,0.878,4.313,1.316,6.738,1.316c2.34,0,4.449-0.438,6.33-1.316
		c1.88-0.878,3.479-2.215,4.795-4.011c1.316-1.797,2.329-4.064,3.04-6.801c0.71-2.736,1.065-5.965,1.065-9.685
		c0-3.761-0.305-6.946-0.909-9.56c-0.606-2.61-1.473-4.731-2.601-6.361c-1.129-1.63-2.497-2.819-4.106-3.572
		c-1.608-0.753-3.438-1.129-5.484-1.129c-3.218,0-5.955,0.68-8.211,2.038s-4.388,3.27-6.394,5.735V90.896z"/>
</g>
</svg>
