<svg xmlns="http://www.w3.org/2000/svg" viewBox="0 0 250.05 51.6"><defs><style>.cls-1{fill:#f5f5f5;}.cls-2{fill:#32e6be;}</style></defs><g id="Layer_2" data-name="Layer 2"><g id="Layer_1-2" data-name="Layer 1"><path class="cls-1" d="M84.34,20.46c.71-.89,1.38-1.73,2.09-2.49v-.09c-.94.05-1.74.05-2.54.05H75.72V13.48H93v3.87L84.07,29c-.75.93-1.46,1.87-2.22,2.67v.09c.93-.05,1.78-.05,2.67-.05h8.93v4.45H75.27V32.32Z"/><path class="cls-1" d="M115.89,26H101c.09,4.09,2.14,6.09,5.16,6.09s4.35-1.78,4.62-3.78h5c-.27,4.36-3.74,8.27-9.65,8.27-6.39,0-10.62-4.13-10.62-11.69S100.16,13,106,13c6,0,10,4.09,10,11.06C116,24.64,115.93,25.35,115.89,26Zm-14.8-3.46h9.69c-.27-3.65-2.18-5.29-4.8-5.29S101.49,19,101.09,22.55Z"/><path class="cls-1" d="M121.36,17.93h-3V13.71h1.11c1.78,0,2.22-.58,2.22-3V6.37h5v7.11h5.65v4.45h-5.65V28.68c0,2.58.85,3.38,2.8,3.38a6.28,6.28,0,0,0,2.85-.67v4.44a10.58,10.58,0,0,1-4.22.8c-4.85,0-6.8-2-6.8-7Z"/><path class="cls-1" d="M148.55,23V21.35c0-2.8-1.2-4.18-3.82-4.18-2.31,0-3.95,1.25-3.95,3.47a5,5,0,0,0,.08,1H135.8a10.4,10.4,0,0,1,0-1.07c0-4.48,3.77-7.55,9.15-7.55,5.86,0,8.93,3.07,8.93,8.44v7.69c0,2.31.31,3,1.24,3a1.65,1.65,0,0,0,.94-.27v3.95a6.19,6.19,0,0,1-2.89.67c-3.25,0-4.13-1.11-4.4-3.69h-.09c-1.15,2.22-3.42,3.78-6.89,3.78-4.4,0-6.93-2.22-6.93-6.18C134.82,24.33,141,23.08,148.55,23Zm0,3.38c-5.46.13-8.31.93-8.31,3.51,0,1.73,1,2.67,3.29,2.67a5.34,5.34,0,0,0,5-3.69Z"/><path class="cls-1" d="M163.57,29.17c.09,2.27,1.51,3.42,4.18,3.42s4-1.07,4-2.49c0-2-1.29-2.26-4.4-3.15-5.15-1.38-8.66-2.27-8.66-7.11,0-4.18,3.82-6.8,9-6.8,5.78,0,9.2,2.67,9,7.29h-5.07c0-2.18-1.38-3.34-3.82-3.34-2.22,0-3.78,1-3.78,2.4,0,1.91,1.38,2.36,4.22,3.07,5.42,1.29,8.8,2.44,8.8,7,0,4.31-3.73,7.11-9.42,7.11s-9.24-2.44-9.24-7.42Z"/><path class="cls-1" d="M200.68,26H185.79c.09,4.09,2.14,6.09,5.16,6.09s4.35-1.78,4.62-3.78h5c-.26,4.36-3.73,8.27-9.64,8.27-6.4,0-10.62-4.13-10.62-11.69S185,13,190.77,13c6,0,10,4.09,10,11.06C200.77,24.64,200.72,25.35,200.68,26Zm-14.8-3.46h9.69c-.27-3.65-2.18-5.29-4.8-5.29S186.28,19,185.88,22.55Z"/><path class="cls-1" d="M224.67,26H209.79c.09,4.09,2.13,6.09,5.15,6.09s4.36-1.78,4.62-3.78h5c-.27,4.36-3.73,8.27-9.64,8.27-6.4,0-10.62-4.13-10.62-11.69S209,13,214.77,13c6,0,10,4.09,10,11.06C224.76,24.64,224.72,25.35,224.67,26Zm-14.79-3.46h9.68c-.26-3.65-2.17-5.29-4.79-5.29S210.28,19,209.88,22.55Z"/><path class="cls-1" d="M238,26.19l-3.25,3.38v6.58h-5.42v-32h5.42V23.44h.09c.71-.89,1.2-1.38,1.91-2.18l6.85-7.78h6l-7.69,9,8.09,13.65h-6.27Z"/><path class="cls-2" d="M58.6,0H13.66L0,23.65H16.13L0,51.6H45L58.6,28H42.47ZM46.9,34.7,41.05,44.85H11.7L27.83,16.9H11.7L17.56,6.75H46.9l-16.13,28Z"/></g></g></svg>