<svg width="528" height="352" viewBox="0 0 528 352" fill="none" xmlns="http://www.w3.org/2000/svg">
<path d="M278.057 12.51C278.067 13.61 278.817 14.1 279.957 14.1C281.097 14.1 281.817 13.49 281.817 12.69C281.817 11.72 281.167 11.51 280.037 11.22C279.207 10.99 278.737 10.89 278.737 10.23C278.737 9.72 279.257 9.38 279.927 9.38C280.727 9.38 281.167 9.75 281.187 10.43H281.747C281.747 9.46 281.067 8.9 279.927 8.9C278.977 8.9 278.177 9.4 278.177 10.27C278.177 11.29 278.907 11.46 279.927 11.73C280.867 11.99 281.247 12.1 281.247 12.72C281.247 13.21 280.807 13.62 279.977 13.62C279.147 13.62 278.647 13.31 278.617 12.51H278.057ZM287.004 11.57C287.014 11.47 287.024 11.37 287.024 11.29C287.024 9.8 286.204 8.9 284.974 8.9C283.784 8.9 282.844 9.86 282.844 11.51C282.844 13.15 283.674 14.1 285.034 14.1C286.274 14.1 286.924 13.25 286.974 12.4H286.444C286.384 12.99 285.964 13.61 285.044 13.61C284.014 13.61 283.424 12.87 283.424 11.57H287.004ZM284.974 9.38C285.824 9.38 286.424 9.96 286.464 11.13H283.444C283.544 9.99 284.164 9.38 284.974 9.38ZM288.087 12.8C288.087 13.62 288.627 14.1 289.587 14.1C290.417 14.1 290.997 13.68 291.277 13.02H291.297C291.317 13.82 291.487 14.07 292.037 14.07C292.197 14.07 292.347 14.02 292.437 13.97V13.53C292.357 13.57 292.287 13.58 292.197 13.58C291.927 13.58 291.847 13.39 291.847 12.64V10.76C291.847 9.55 291.267 8.9 290.107 8.9C289.047 8.9 288.297 9.52 288.297 10.44C288.297 10.52 288.297 10.59 288.317 10.68H288.847C288.837 10.56 288.837 10.52 288.837 10.43C288.837 9.79 289.357 9.39 290.087 9.39C290.917 9.39 291.277 9.84 291.277 10.76V11.19C289.357 11.23 288.087 11.52 288.087 12.8ZM291.277 12.39C290.977 13.25 290.407 13.64 289.737 13.64C288.997 13.64 288.667 13.31 288.667 12.74C288.667 11.89 289.567 11.64 291.277 11.6V12.39ZM293.535 9V14H294.095V11.63C294.095 10.15 294.905 9.49 295.655 9.49C295.825 9.49 295.975 9.5 296.185 9.55V8.98C296.015 8.95 295.885 8.94 295.685 8.94C294.895 8.94 294.295 9.58 294.105 10.36H294.095V9H293.535ZM296.819 11.56C296.819 13.18 297.739 14.1 298.989 14.1C300.229 14.1 300.819 13.29 300.959 12.22H300.389C300.259 13.03 299.889 13.61 298.989 13.61C298.079 13.61 297.399 12.86 297.399 11.54C297.399 10.19 298.089 9.39 299.009 9.39C299.959 9.39 300.359 10.12 300.389 10.79H300.959C300.939 9.83 300.269 8.9 299.019 8.9C297.789 8.9 296.819 9.88 296.819 11.56ZM304.683 8.9C303.683 8.9 303.093 9.58 302.933 10.25H302.913C302.923 9.83 302.923 9.42 302.923 9V6.8H302.363V14H302.923V11.47C302.923 10.26 303.593 9.41 304.503 9.41C305.273 9.41 305.683 9.86 305.683 10.8V14H306.243V10.67C306.243 9.53 305.643 8.9 304.683 8.9ZM313.714 9V10.09H313.694C313.574 9.63 313.064 8.9 312.084 8.9C310.804 8.9 309.914 9.92 309.914 11.53C309.914 13.16 310.804 14.1 312.014 14.1C313.004 14.1 313.554 13.39 313.694 12.8H313.714C313.704 13.04 313.704 13.29 313.704 13.54V16.15H314.274V9H313.714ZM313.704 11.52C313.704 12.86 312.984 13.62 312.084 13.62C311.174 13.62 310.494 12.84 310.494 11.52C310.494 10.22 311.164 9.38 312.144 9.38C313.004 9.38 313.704 10.14 313.704 11.37V11.52ZM315.886 12.34C315.886 13.49 316.476 14.1 317.486 14.1C318.406 14.1 318.956 13.41 319.126 12.75H319.146V14H319.706V9H319.136V11.54C319.136 12.74 318.486 13.6 317.596 13.6C316.846 13.6 316.456 13.13 316.456 12.23V9H315.886V12.34ZM325.266 11.57C325.276 11.47 325.286 11.37 325.286 11.29C325.286 9.8 324.466 8.9 323.236 8.9C322.046 8.9 321.106 9.86 321.106 11.51C321.106 13.15 321.936 14.1 323.296 14.1C324.536 14.1 325.186 13.25 325.236 12.4H324.706C324.646 12.99 324.226 13.61 323.306 13.61C322.276 13.61 321.686 12.87 321.686 11.57H325.266ZM323.236 9.38C324.086 9.38 324.686 9.96 324.726 11.13H321.706C321.806 9.99 322.426 9.38 323.236 9.38ZM326.689 9V14H327.249V11.63C327.249 10.15 328.059 9.49 328.809 9.49C328.979 9.49 329.129 9.5 329.339 9.55V8.98C329.169 8.95 329.039 8.94 328.839 8.94C328.049 8.94 327.449 9.58 327.259 10.36H327.249V9H326.689ZM329.847 16.17C329.997 16.22 330.207 16.26 330.517 16.26C331.417 16.26 331.737 15.53 332.137 14.51L334.257 9H333.657L332.307 12.66C332.227 12.88 332.147 13.1 332.067 13.34H332.057C331.987 13.1 331.887 12.88 331.807 12.65L330.417 9H329.807L331.757 14.03L331.567 14.53C331.267 15.33 331.037 15.78 330.427 15.78C330.167 15.78 329.987 15.73 329.847 15.69V16.17Z" fill="#F5F5F5"/>
<path d="M286.091 196.83V203H286.681V196.83H288.961V196.3H283.811V196.83H286.091ZM292.28 197.9C291.28 197.9 290.69 198.58 290.53 199.25H290.51C290.52 198.83 290.52 198.42 290.52 198V195.8H289.96V203H290.52V200.47C290.52 199.26 291.19 198.41 292.1 198.41C292.87 198.41 293.28 198.86 293.28 199.8V203H293.84V199.67C293.84 198.53 293.24 197.9 292.28 197.9ZM295.438 196.16V196.83H296.058V196.16H295.438ZM295.468 198V203H296.028V198H295.468ZM297.344 201.51C297.354 202.61 298.104 203.1 299.244 203.1C300.384 203.1 301.104 202.49 301.104 201.69C301.104 200.72 300.454 200.51 299.324 200.22C298.494 199.99 298.024 199.89 298.024 199.23C298.024 198.72 298.544 198.38 299.214 198.38C300.014 198.38 300.454 198.75 300.474 199.43H301.034C301.034 198.46 300.354 197.9 299.214 197.9C298.264 197.9 297.464 198.4 297.464 199.27C297.464 200.29 298.194 200.46 299.214 200.73C300.154 200.99 300.534 201.1 300.534 201.72C300.534 202.21 300.094 202.62 299.264 202.62C298.434 202.62 297.934 202.31 297.904 201.51H297.344ZM304.755 198V203H305.315V200.47C305.315 199.26 305.985 198.41 306.895 198.41C307.665 198.41 308.075 198.86 308.075 199.8V203H308.635V199.67C308.635 198.53 308.025 197.9 307.055 197.9C306.075 197.9 305.485 198.58 305.325 199.25H305.315V198H304.755ZM309.973 200.52C309.973 202.15 310.923 203.1 312.173 203.1C313.413 203.1 314.383 202.13 314.383 200.48C314.383 198.85 313.443 197.9 312.183 197.9C310.953 197.9 309.973 198.86 309.973 200.52ZM313.803 200.5C313.803 201.82 313.123 202.61 312.173 202.61C311.243 202.61 310.553 201.84 310.553 200.5C310.553 199.19 311.243 198.39 312.183 198.39C313.123 198.39 313.803 199.16 313.803 200.5ZM319.3 195.8V199.06H319.28C319.15 198.62 318.65 197.9 317.68 197.9C316.4 197.9 315.5 198.92 315.5 200.53C315.5 202.15 316.4 203.1 317.6 203.1C318.6 203.1 319.15 202.39 319.29 201.8H319.3V203H319.86V195.8H319.3ZM319.3 200.52C319.3 201.87 318.57 202.62 317.68 202.62C316.76 202.62 316.08 201.85 316.08 200.52C316.08 199.22 316.76 198.38 317.73 198.38C318.59 198.38 319.3 199.14 319.3 200.37V200.52ZM325.432 200.57C325.442 200.47 325.452 200.37 325.452 200.29C325.452 198.8 324.632 197.9 323.402 197.9C322.212 197.9 321.272 198.86 321.272 200.51C321.272 202.15 322.102 203.1 323.462 203.1C324.702 203.1 325.352 202.25 325.402 201.4H324.872C324.812 201.99 324.392 202.61 323.472 202.61C322.442 202.61 321.852 201.87 321.852 200.57H325.432ZM323.402 198.38C324.252 198.38 324.852 198.96 324.892 200.13H321.872C321.972 198.99 322.592 198.38 323.402 198.38ZM300.13 214.09C300.13 215.99 300.78 217.72 301.68 219.2H302.51C301.69 217.6 301.03 216.13 301.03 214.09C301.03 212.06 301.69 210.59 302.51 209H301.68C300.78 210.48 300.13 212.21 300.13 214.09ZM307.972 217H309.062L306.572 210.3H305.432L302.942 217H303.992L304.582 215.37H307.382L307.972 217ZM304.882 214.56L305.692 212.33C305.782 212.09 305.882 211.79 305.972 211.51H306.002C306.082 211.8 306.182 212.09 306.272 212.33L307.082 214.56H304.882ZM310.958 214.11C310.958 216.14 310.298 217.61 309.488 219.2H310.308C311.208 217.72 311.868 215.99 311.868 214.11C311.868 212.21 311.208 210.48 310.308 209H309.488C310.308 210.6 310.958 212.07 310.958 214.11Z" fill="#B985DC"/>
<path d="M33.162 281.67C33.162 283.6 34.232 285.12 36.072 285.12C37.922 285.12 39.012 283.62 39.012 281.64C39.012 279.71 37.942 278.18 36.102 278.18C34.252 278.18 33.162 279.68 33.162 281.67ZM38.412 281.65C38.412 283.32 37.572 284.59 36.082 284.59C34.602 284.59 33.762 283.31 33.762 281.65C33.762 279.99 34.602 278.71 36.092 278.71C37.572 278.71 38.412 279.99 38.412 281.65ZM40.6335 283.83C40.6335 284.76 40.9835 285.1 41.8235 285.1C42.1635 285.1 42.4535 285.03 42.6335 284.94V284.46C42.4335 284.55 42.2135 284.61 41.9435 284.61C41.4135 284.61 41.2035 284.41 41.2035 283.76V280.49H42.6335V280H41.2035V278.3H40.6835V279.44C40.6835 279.92 40.6035 280.02 40.2435 280.02H39.8935V280.49H40.6335V283.83ZM46.0743 279.9C45.0743 279.9 44.4843 280.58 44.3243 281.25H44.3043C44.3143 280.83 44.3143 280.42 44.3143 280V277.8H43.7543V285H44.3143V282.47C44.3143 281.26 44.9843 280.41 45.8943 280.41C46.6643 280.41 47.0743 280.86 47.0743 281.8V285H47.6343V281.67C47.6343 280.53 47.0343 279.9 46.0743 279.9ZM53.1321 282.57C53.1421 282.47 53.1521 282.37 53.1521 282.29C53.1521 280.8 52.3321 279.9 51.1021 279.9C49.9121 279.9 48.9721 280.86 48.9721 282.51C48.9721 284.15 49.8021 285.1 51.1621 285.1C52.4021 285.1 53.0521 284.25 53.1021 283.4H52.5721C52.5121 283.99 52.0921 284.61 51.1721 284.61C50.1421 284.61 49.5521 283.87 49.5521 282.57H53.1321ZM51.1021 280.38C51.9521 280.38 52.5521 280.96 52.5921 282.13H49.5721C49.6721 280.99 50.2921 280.38 51.1021 280.38ZM54.5551 280V285H55.1151V282.63C55.1151 281.15 55.9251 280.49 56.6751 280.49C56.8451 280.49 56.9951 280.5 57.2051 280.55V279.98C57.0351 279.95 56.9051 279.94 56.7051 279.94C55.9151 279.94 55.3151 280.58 55.1251 281.36H55.1151V280H54.5551ZM62.8993 279.9C61.8993 279.9 61.3593 280.61 61.1993 281.2H61.1893V280H60.6293V287.15H61.1893V283.94H61.2093C61.3293 284.37 61.8393 285.1 62.8193 285.1C64.0893 285.1 64.9893 284.07 64.9893 282.47C64.9893 280.85 64.1093 279.9 62.8993 279.9ZM62.7493 284.62C61.8893 284.62 61.1893 283.88 61.1893 282.64V282.48C61.1893 281.14 61.9093 280.38 62.8093 280.38C63.7293 280.38 64.4093 281.16 64.4093 282.48C64.4093 283.78 63.7293 284.62 62.7493 284.62ZM66.051 284.77V285H70.531V284.46H66.691C66.731 283.73 67.411 283.16 68.591 282.41C69.991 281.54 70.481 281.02 70.481 279.97C70.481 278.89 69.741 278.18 68.431 278.18C67.101 278.18 66.191 278.9 66.191 280.22C66.191 280.3 66.191 280.39 66.201 280.48H66.781C66.771 280.39 66.771 280.31 66.771 280.23C66.771 279.23 67.391 278.7 68.421 278.7C69.361 278.7 69.881 279.2 69.881 280.01C69.881 280.88 69.411 281.3 68.261 282.03C66.861 282.88 66.051 283.71 66.051 284.77ZM74.2274 279.9C73.2274 279.9 72.6874 280.61 72.5274 281.2H72.5174V280H71.9574V287.15H72.5174V283.94H72.5374C72.6574 284.37 73.1674 285.1 74.1474 285.1C75.4174 285.1 76.3174 284.07 76.3174 282.47C76.3174 280.85 75.4374 279.9 74.2274 279.9ZM74.0774 284.62C73.2174 284.62 72.5174 283.88 72.5174 282.64V282.48C72.5174 281.14 73.2374 280.38 74.1374 280.38C75.0574 280.38 75.7374 281.16 75.7374 282.48C75.7374 283.78 75.0574 284.62 74.0774 284.62ZM80.0531 280V285H80.6131V282.47C80.6131 281.26 81.2831 280.41 82.1931 280.41C82.9631 280.41 83.3731 280.86 83.3731 281.8V285H83.9331V281.67C83.9331 280.53 83.3231 279.9 82.3531 279.9C81.3731 279.9 80.7831 280.58 80.6231 281.25H80.6131V280H80.0531ZM85.2709 282.52C85.2709 284.15 86.2209 285.1 87.4709 285.1C88.7109 285.1 89.6809 284.13 89.6809 282.48C89.6809 280.85 88.7409 279.9 87.4809 279.9C86.2509 279.9 85.2709 280.86 85.2709 282.52ZM89.1009 282.5C89.1009 283.82 88.4209 284.61 87.4709 284.61C86.5409 284.61 85.8509 283.84 85.8509 282.5C85.8509 281.19 86.5409 280.39 87.4809 280.39C88.4209 280.39 89.1009 281.16 89.1009 282.5ZM94.5983 277.8V281.06H94.5783C94.4483 280.62 93.9483 279.9 92.9783 279.9C91.6983 279.9 90.7983 280.92 90.7983 282.53C90.7983 284.15 91.6983 285.1 92.8983 285.1C93.8983 285.1 94.4483 284.39 94.5883 283.8H94.5983V285H95.1583V277.8H94.5983ZM94.5983 282.52C94.5983 283.87 93.8683 284.62 92.9783 284.62C92.0583 284.62 91.3783 283.85 91.3783 282.52C91.3783 281.22 92.0583 280.38 93.0283 280.38C93.8883 280.38 94.5983 281.14 94.5983 282.37V282.52ZM100.73 282.57C100.74 282.47 100.75 282.37 100.75 282.29C100.75 280.8 99.9298 279.9 98.6998 279.9C97.5098 279.9 96.5698 280.86 96.5698 282.51C96.5698 284.15 97.3998 285.1 98.7598 285.1C99.9998 285.1 100.65 284.25 100.7 283.4H100.17C100.11 283.99 99.6898 284.61 98.7698 284.61C97.7398 284.61 97.1498 283.87 97.1498 282.57H100.73ZM98.6998 280.38C99.5498 280.38 100.15 280.96 100.19 282.13H97.1698C97.2698 280.99 97.8898 280.38 98.6998 280.38ZM101.773 283.51C101.783 284.61 102.533 285.1 103.673 285.1C104.813 285.1 105.533 284.49 105.533 283.69C105.533 282.72 104.883 282.51 103.753 282.22C102.923 281.99 102.453 281.89 102.453 281.23C102.453 280.72 102.973 280.38 103.643 280.38C104.443 280.38 104.883 280.75 104.903 281.43H105.463C105.463 280.46 104.783 279.9 103.643 279.9C102.693 279.9 101.893 280.4 101.893 281.27C101.893 282.29 102.623 282.46 103.643 282.73C104.583 282.99 104.963 283.1 104.963 283.72C104.963 284.21 104.523 284.62 103.693 284.62C102.863 284.62 102.363 284.31 102.333 283.51H101.773ZM60.3109 296.09C60.3109 297.99 60.9609 299.72 61.8609 301.2H62.6909C61.8709 299.6 61.2109 298.13 61.2109 296.09C61.2109 294.06 61.8709 292.59 62.6909 291H61.8609C60.9609 292.48 60.3109 294.21 60.3109 296.09ZM67.3729 295.53V295.5C68.1329 295.31 68.5529 294.81 68.5529 294.02C68.5529 292.92 67.8029 292.3 66.4129 292.3H63.8129V299H66.4729C67.8129 299 68.6929 298.31 68.6929 297.11C68.6929 296.22 68.1729 295.68 67.3729 295.53ZM66.3229 293.15C67.0729 293.15 67.4929 293.47 67.4929 294.11C67.4929 294.76 67.0529 295.15 66.3429 295.15H64.8429V293.15H66.3229ZM66.3729 298.15H64.8429V295.99H66.3729C67.1229 295.99 67.6229 296.34 67.6229 297.05C67.6229 297.75 67.1329 298.15 66.3729 298.15ZM70.8343 297.94H69.7443V299H70.1643L69.7543 300.36H70.3143L70.8443 298.88L70.8343 297.94ZM74.166 295.68C74.166 297.7 75.186 299.12 77.186 299.12C78.906 299.12 79.816 297.98 79.966 296.52H78.936C78.796 297.47 78.276 298.22 77.186 298.22C75.936 298.22 75.226 297.16 75.226 295.68C75.226 294.21 75.956 293.09 77.196 293.09C78.326 293.09 78.846 293.94 78.936 294.77H79.966C79.896 293.43 78.946 292.18 77.196 292.18C75.326 292.18 74.166 293.68 74.166 295.68ZM81.9476 297.94H80.8576V299H81.2776L80.8676 300.36H81.4276L81.9576 298.88L81.9476 297.94ZM85.6293 292.3V299H87.9393C90.0493 299 91.1893 297.51 91.1893 295.58C91.1893 293.75 90.0693 292.3 87.9793 292.3H85.6293ZM87.8893 298.09H86.6593V293.21H87.8993C89.4493 293.21 90.1293 294.27 90.1293 295.6C90.1293 297.03 89.4193 298.09 87.8893 298.09ZM93.1195 297.94H92.0295V299H92.4495L92.0395 300.36H92.5995L93.1295 298.88L93.1195 297.94ZM96.5412 297.94V299H97.6312V297.94H96.5412ZM98.8068 297.94V299H99.8968V297.94H98.8068ZM101.072 297.94V299H102.162V297.94H101.072ZM104.488 296.11C104.488 298.14 103.828 299.61 103.018 301.2H103.838C104.738 299.72 105.398 297.99 105.398 296.11C105.398 294.21 104.738 292.48 103.838 291H103.018C103.838 292.6 104.488 294.07 104.488 296.11Z" fill="#32E6BE"/>
<path d="M337.61 80.86C337.56 82.41 338.53 83.12 340.05 83.12C341.55 83.12 342.38 82.32 342.38 81.24C342.38 80.06 341.6 79.63 340.14 79.34C338.95 79.1 338.32 78.84 338.32 77.92C338.32 77.21 338.94 76.71 339.91 76.71C341.06 76.71 341.71 77.23 341.7 78.33H342.28C342.31 76.9 341.33 76.18 339.92 76.18C338.65 76.18 337.72 76.85 337.72 77.96C337.72 79.19 338.57 79.6 339.96 79.87C341.21 80.12 341.79 80.42 341.79 81.28C341.79 82.04 341.23 82.59 340.07 82.59C338.89 82.59 338.18 82.13 338.19 80.86H337.61ZM347.726 80.57C347.736 80.47 347.746 80.37 347.746 80.29C347.746 78.8 346.926 77.9 345.696 77.9C344.506 77.9 343.566 78.86 343.566 80.51C343.566 82.15 344.396 83.1 345.756 83.1C346.996 83.1 347.646 82.25 347.696 81.4H347.166C347.106 81.99 346.686 82.61 345.766 82.61C344.736 82.61 344.146 81.87 344.146 80.57H347.726ZM345.696 78.38C346.546 78.38 347.146 78.96 347.186 80.13H344.166C344.266 78.99 344.886 78.38 345.696 78.38ZM348.809 81.8C348.809 82.62 349.349 83.1 350.309 83.1C351.139 83.1 351.719 82.68 351.999 82.02H352.019C352.039 82.82 352.209 83.07 352.759 83.07C352.919 83.07 353.069 83.02 353.159 82.97V82.53C353.079 82.57 353.009 82.58 352.919 82.58C352.649 82.58 352.569 82.39 352.569 81.64V79.76C352.569 78.55 351.989 77.9 350.829 77.9C349.769 77.9 349.019 78.52 349.019 79.44C349.019 79.52 349.019 79.59 349.039 79.68H349.569C349.559 79.56 349.559 79.52 349.559 79.43C349.559 78.79 350.079 78.39 350.809 78.39C351.639 78.39 351.999 78.84 351.999 79.76V80.19C350.079 80.23 348.809 80.52 348.809 81.8ZM351.999 81.39C351.699 82.25 351.129 82.64 350.459 82.64C349.719 82.64 349.389 82.31 349.389 81.74C349.389 80.89 350.289 80.64 351.999 80.6V81.39ZM354.256 78V83H354.816V80.63C354.816 79.15 355.626 78.49 356.376 78.49C356.546 78.49 356.696 78.5 356.906 78.55V77.98C356.736 77.95 356.606 77.94 356.406 77.94C355.616 77.94 355.016 78.58 354.826 79.36H354.816V78H354.256ZM357.54 80.56C357.54 82.18 358.46 83.1 359.71 83.1C360.95 83.1 361.54 82.29 361.68 81.22H361.11C360.98 82.03 360.61 82.61 359.71 82.61C358.8 82.61 358.12 81.86 358.12 80.54C358.12 79.19 358.81 78.39 359.73 78.39C360.68 78.39 361.08 79.12 361.11 79.79H361.68C361.66 78.83 360.99 77.9 359.74 77.9C358.51 77.9 357.54 78.88 357.54 80.56ZM365.404 77.9C364.404 77.9 363.814 78.58 363.654 79.25H363.634C363.644 78.83 363.644 78.42 363.644 78V75.8H363.084V83H363.644V80.47C363.644 79.26 364.314 78.41 365.224 78.41C365.994 78.41 366.404 78.86 366.404 79.8V83H366.964V79.67C366.964 78.53 366.364 77.9 365.404 77.9ZM370.926 78V83H371.486V80.63C371.486 79.15 372.296 78.49 373.046 78.49C373.216 78.49 373.366 78.5 373.576 78.55V77.98C373.406 77.95 373.276 77.94 373.076 77.94C372.286 77.94 371.686 78.58 371.496 79.36H371.486V78H370.926ZM378.37 80.57C378.38 80.47 378.39 80.37 378.39 80.29C378.39 78.8 377.57 77.9 376.34 77.9C375.15 77.9 374.21 78.86 374.21 80.51C374.21 82.15 375.04 83.1 376.4 83.1C377.64 83.1 378.29 82.25 378.34 81.4H377.81C377.75 81.99 377.33 82.61 376.41 82.61C375.38 82.61 374.79 81.87 374.79 80.57H378.37ZM376.34 78.38C377.19 78.38 377.79 78.96 377.83 80.13H374.81C374.91 78.99 375.53 78.38 376.34 78.38ZM379.413 81.51C379.423 82.61 380.173 83.1 381.313 83.1C382.453 83.1 383.173 82.49 383.173 81.69C383.173 80.72 382.523 80.51 381.393 80.22C380.563 79.99 380.093 79.89 380.093 79.23C380.093 78.72 380.613 78.38 381.283 78.38C382.083 78.38 382.523 78.75 382.543 79.43H383.103C383.103 78.46 382.423 77.9 381.283 77.9C380.333 77.9 379.533 78.4 379.533 79.27C379.533 80.29 380.263 80.46 381.283 80.73C382.223 80.99 382.603 81.1 382.603 81.72C382.603 82.21 382.163 82.62 381.333 82.62C380.503 82.62 380.003 82.31 379.973 81.51H379.413ZM384.411 81.34C384.411 82.49 385.001 83.1 386.011 83.1C386.931 83.1 387.481 82.41 387.651 81.75H387.671V83H388.231V78H387.661V80.54C387.661 81.74 387.011 82.6 386.121 82.6C385.371 82.6 384.981 82.13 384.981 81.23V78H384.411V81.34ZM389.92 75.8V83H390.48V75.8H389.92ZM392.356 81.83C392.356 82.76 392.706 83.1 393.546 83.1C393.886 83.1 394.176 83.03 394.356 82.94V82.46C394.156 82.55 393.936 82.61 393.666 82.61C393.136 82.61 392.926 82.41 392.926 81.76V78.49H394.356V78H392.926V76.3H392.406V77.44C392.406 77.92 392.326 78.02 391.966 78.02H391.616V78.49H392.356V81.83ZM395.058 81.51C395.068 82.61 395.818 83.1 396.958 83.1C398.098 83.1 398.818 82.49 398.818 81.69C398.818 80.72 398.168 80.51 397.038 80.22C396.208 79.99 395.738 79.89 395.738 79.23C395.738 78.72 396.258 78.38 396.928 78.38C397.728 78.38 398.168 78.75 398.188 79.43H398.748C398.748 78.46 398.068 77.9 396.928 77.9C395.978 77.9 395.178 78.4 395.178 79.27C395.178 80.29 395.908 80.46 396.928 80.73C397.868 80.99 398.248 81.1 398.248 81.72C398.248 82.21 397.808 82.62 396.978 82.62C396.148 82.62 395.648 82.31 395.618 81.51H395.058ZM337.6 94.09C337.6 95.99 338.25 97.72 339.15 99.2H339.98C339.16 97.6 338.5 96.13 338.5 94.09C338.5 92.06 339.16 90.59 339.98 89H339.15C338.25 90.48 337.6 92.21 337.6 94.09ZM345.442 97H346.532L344.042 90.3H342.902L340.412 97H341.462L342.052 95.37H344.852L345.442 97ZM342.352 94.56L343.162 92.33C343.252 92.09 343.352 91.79 343.442 91.51H343.472C343.552 91.8 343.652 92.09 343.742 92.33L344.552 94.56H342.352ZM348.428 94.11C348.428 96.14 347.768 97.61 346.958 99.2H347.778C348.678 97.72 349.338 95.99 349.338 94.11C349.338 92.21 348.678 90.48 347.778 89H346.958C347.778 90.6 348.428 92.07 348.428 94.11Z" fill="#B985DC"/>
<path d="M172.074 344.52V344.51C172.824 344.32 173.274 343.77 173.274 342.97C173.274 341.89 172.544 341.3 171.244 341.3H168.934V348H171.344C172.584 348 173.434 347.31 173.434 346.13C173.434 345.23 172.864 344.67 172.074 344.52ZM171.204 341.8C172.154 341.8 172.674 342.19 172.674 343C172.674 343.81 172.114 344.3 171.254 344.3H169.514V341.8H171.204ZM171.304 347.5H169.514V344.81H171.274C172.194 344.81 172.824 345.24 172.824 346.12C172.824 347.01 172.224 347.5 171.304 347.5Z" fill="#32E6BE"/>
<path d="M302.221 344.68C302.221 346.65 303.241 348.12 305.151 348.12C306.781 348.12 307.581 347 307.781 345.69H307.191C307.011 346.71 306.431 347.6 305.151 347.6C303.671 347.6 302.821 346.34 302.821 344.68C302.821 343 303.661 341.71 305.151 341.71C306.461 341.71 307.091 342.68 307.191 343.61H307.781C307.691 342.4 306.811 341.18 305.151 341.18C303.321 341.18 302.221 342.7 302.221 344.68Z" fill="#32E6BE"/>
<path d="M439.563 341.3V348H441.643C443.763 348 444.863 346.51 444.863 344.58C444.863 342.75 443.803 341.3 441.703 341.3H439.563ZM441.633 347.47H440.143V341.83H441.663C443.463 341.83 444.263 343.06 444.263 344.59C444.263 346.23 443.423 347.47 441.633 347.47Z" fill="#32E6BE"/>
<path d="M297.646 112.354C297.842 112.549 298.158 112.549 298.354 112.354L301.536 109.172C301.731 108.976 301.731 108.66 301.536 108.464C301.34 108.269 301.024 108.269 300.828 108.464L298 111.293L295.172 108.464C294.976 108.269 294.66 108.269 294.464 108.464C294.269 108.66 294.269 108.976 294.464 109.172L297.646 112.354ZM297.5 21L297.5 112L298.5 112L298.5 21L297.5 21Z" fill="#4D3287"/>
<path d="M297.646 112.354C297.842 112.549 298.158 112.549 298.354 112.354L301.536 109.172C301.731 108.976 301.731 108.66 301.536 108.464C301.34 108.269 301.024 108.269 300.828 108.464L298 111.293L295.172 108.464C294.976 108.269 294.66 108.269 294.464 108.464C294.269 108.66 294.269 108.976 294.464 109.172L297.646 112.354ZM297.5 21L297.5 112L298.5 112L298.5 21L297.5 21Z" fill="url(#paint0_linear)"/>
<path d="M316.354 25.6464C316.158 25.4512 315.842 25.4512 315.646 25.6464L312.464 28.8284C312.269 29.0237 312.269 29.3403 312.464 29.5355C312.66 29.7308 312.976 29.7308 313.172 29.5355L316 26.7071L318.828 29.5355C319.024 29.7308 319.34 29.7308 319.536 29.5355C319.731 29.3403 319.731 29.0237 319.536 28.8284L316.354 25.6464ZM316.5 122L316.5 26L315.5 26L315.5 122L316.5 122Z" fill="#4D3287"/>
<path d="M316.354 25.6464C316.158 25.4512 315.842 25.4512 315.646 25.6464L312.464 28.8284C312.269 29.0237 312.269 29.3403 312.464 29.5355C312.66 29.7308 312.976 29.7308 313.172 29.5355L316 26.7071L318.828 29.5355C319.024 29.7308 319.34 29.7308 319.536 29.5355C319.731 29.3403 319.731 29.0237 319.536 28.8284L316.354 25.6464ZM316.5 122L316.5 26L315.5 26L315.5 122L316.5 122Z" fill="url(#paint1_linear)"/>
<path d="M451 277H433.19L429.017 283.794V287.965H433.327L429 294.149V301H446.361L450.97 293.861V289.998H446.617L450.996 283.534V277H451ZM447.746 282.623L440.656 293.092H447.652L444.543 297.91H432.254V295.088L439.399 284.875H432.267V284.635L435.055 280.098H447.742V282.623H447.746Z" fill="#006C54"/>
<circle cx="439.5" cy="289.5" r="32" stroke="#006C54" stroke-width="3"/>
<path d="M317 277H299.19L295.017 283.794V287.965H299.327L295 294.149V301H312.361L316.97 293.861V289.998H312.617L316.996 283.534V277H317ZM313.746 282.623L306.656 293.092H313.652L310.543 297.91H298.254V295.088L305.399 284.875H298.267V284.635L301.055 280.098H313.742V282.623H313.746Z" fill="#006C54"/>
<circle cx="305.5" cy="289.5" r="32" stroke="#006C54" stroke-width="3"/>
<rect x="234" y="1" width="144" height="20" rx="10" stroke="#B985DC" stroke-width="2"/>
<circle cx="504" cy="290" r="2" fill="#32E6BE"/>
<circle cx="515" cy="290" r="2" fill="#32E6BE"/>
<circle cx="526" cy="290" r="2" fill="#32E6BE"/>
<path d="M182 278H164.19L160.017 284.794V288.965H164.327L160 295.149V302H177.361L181.97 294.861V290.998H177.617L181.996 284.534V278H182ZM178.746 283.623L171.656 294.092H178.652L175.543 298.91H163.254V296.088L170.399 285.875H163.267V285.635L166.055 281.098H178.742V283.623H178.746Z" fill="#006C54"/>
<circle cx="171.5" cy="289.5" r="32" stroke="#006C54" stroke-width="3"/>
<path d="M316 139H298.19L294.017 145.794V149.965H298.327L294 156.149V163H311.361L315.97 155.861V151.998H311.617L315.996 145.534V139H316ZM312.746 144.623L305.656 155.092H312.652L309.543 159.91H297.254V157.088L304.399 146.875H297.267V146.635L300.055 142.098H312.742V144.623H312.746Z" fill="#B68AD4"/>
<circle cx="305.5" cy="151.5" r="32" stroke="#4D3287" stroke-width="3"/>
<path d="M298 62C301.866 62 305 58.866 305 55C305 51.134 301.866 48 298 48C294.134 48 291 51.134 291 55C291 58.866 294.134 62 298 62Z" fill="#251637" stroke="#B68AD4" stroke-miterlimit="10"/>
<path d="M297.825 57.3625V53.5125C297.65 53.775 297.3 53.8625 296.775 53.95V53.1625C297.3 53.1625 297.562 52.9 297.825 52.6375H298.7V57.3625H297.825Z" fill="#B68AD4"/>
<path d="M316 87C319.866 87 323 83.866 323 80C323 76.134 319.866 73 316 73C312.134 73 309 76.134 309 80C309 83.866 312.134 87 316 87Z" fill="#251637" stroke="#B68AD4" stroke-miterlimit="10"/>
<path d="M315.913 79.9125C316.613 79.5625 316.787 79.3 316.787 78.8625C316.787 78.425 316.525 78.1625 316.087 78.1625C315.562 78.1625 315.212 78.425 315.212 78.95C315.212 79.0375 315.212 79.0375 315.212 79.125H314.337C314.337 79.0375 314.337 79.0375 314.337 78.95C314.337 77.9875 315.037 77.375 316.087 77.375C317.138 77.375 317.75 77.9 317.75 78.775C317.75 79.475 317.4 79.9125 316.438 80.4375C315.65 80.7875 315.3 81.05 315.212 81.4H317.662V82.1875H314.25V82.0125C314.25 81.1375 314.688 80.525 315.913 79.9125Z" fill="#B68AD4"/>
<defs>
<linearGradient id="paint0_linear" x1="297.988" y1="22.0219" x2="296.954" y2="110.954" gradientUnits="userSpaceOnUse">
<stop stop-color="#B985DC"/>
<stop offset="1" stop-color="#B985DC" stop-opacity="0"/>
</linearGradient>
<linearGradient id="paint1_linear" x1="316" y1="28.1818" x2="316" y2="119.273" gradientUnits="userSpaceOnUse">
<stop stop-color="#B68AD4"/>
<stop offset="1" stop-color="#B68AD4" stop-opacity="0"/>
</linearGradient>
</defs>
</svg>
