<svg width="16" height="15" viewBox="0 0 16 15" fill="none" xmlns="http://www.w3.org/2000/svg">
<path d="M10.9 6.40009L7.99998 9.30009L5.09998 6.40009" stroke="#32E6BE" stroke-miterlimit="10"/>
<path d="M10.9 6.40009L7.99998 9.30009L5.09998 6.40009" stroke="#F5F5F5" stroke-miterlimit="10"/>
<path d="M8 14.5001C11.866 14.5001 15 11.3661 15 7.50006C15 3.63407 11.866 0.500061 8 0.500061C4.13401 0.500061 1 3.63407 1 7.50006C1 11.3661 4.13401 14.5001 8 14.5001Z" stroke="#32E6BE" stroke-miterlimit="10"/>
<path d="M8 14.5001C11.866 14.5001 15 11.3661 15 7.50006C15 3.63407 11.866 0.500061 8 0.500061C4.13401 0.500061 1 3.63407 1 7.50006C1 11.3661 4.13401 14.5001 8 14.5001Z" stroke="#F5F5F5" stroke-miterlimit="10"/>
</svg>
