<svg width="16" height="15" viewBox="0 0 16 15" fill="none" xmlns="http://www.w3.org/2000/svg">
<path d="M8 14.5C11.866 14.5 15 11.366 15 7.5C15 3.63401 11.866 0.5 8 0.5C4.13401 0.5 1 3.63401 1 7.5C1 11.366 4.13401 14.5 8 14.5Z" stroke="#32E6BE" stroke-miterlimit="10"/>
<path d="M7.30002 6.39995H6.40002V6.09995H6.80002C7.80002 6.09995 8.20002 6.09995 8.70002 5.99995V10.7H9.50002V11H6.40002V10.7H7.20002V6.39995H7.30002ZM8.70002 3.99995C8.70002 4.49995 8.30002 4.79995 7.90002 4.79995C7.40002 4.79995 7.00002 4.39995 7.00002 3.99995C7.00002 3.59995 7.40002 3.19995 7.80002 3.19995C8.30002 3.19995 8.70002 3.49995 8.70002 3.99995Z" fill="#32E6BE"/>
</svg>
