<?xml version="1.0" encoding="utf-8"?>
<!-- Generator: Adobe Illustrator 24.2.1, SVG Export Plug-In . SVG Version: 6.00 Build 0)  -->
<svg version="1.1" id="Layer_1" xmlns="http://www.w3.org/2000/svg" xmlns:xlink="http://www.w3.org/1999/xlink" x="0px" y="0px"
	 viewBox="0 0 528 352" style="enable-background:new 0 0 528 352;" xml:space="preserve">
<style type="text/css">
	.st0{fill:#32E6BE;}
	.st1{fill:#B985DC;}
	.st2{fill:#F5F5F5;}
	.st3{fill:url(#SVGID_1_);}
	.st4{fill:url(#SVGID_2_);}
	.st5{fill:url(#SVGID_3_);}
	.st6{fill:url(#SVGID_4_);}
	.st7{fill:url(#SVGID_5_);}
	.st8{fill:url(#SVGID_6_);}
	.st9{fill:none;stroke:#006C54;stroke-width:3;}
	.st10{fill:none;stroke:#32E6BE;stroke-width:2;}
	.st11{fill:url(#SVGID_7_);}
	.st12{fill:url(#SVGID_8_);}
	.st13{fill:#B68AD4;}
	.st14{fill:none;stroke:#4D3287;stroke-width:3;}
	.st15{fill:#251637;stroke:#32E6BE;stroke-miterlimit:10;}
</style>
<path class="st0" d="M21.2,281.7c0,1.9,1.1,3.4,2.9,3.4c1.9,0,2.9-1.5,2.9-3.5c0-1.9-1.1-3.5-2.9-3.5
	C22.3,278.2,21.2,279.7,21.2,281.7z M26.5,281.6c0,1.7-0.8,2.9-2.3,2.9s-2.3-1.3-2.3-2.9s0.8-2.9,2.3-2.9
	C25.6,278.7,26.5,280,26.5,281.6z M28.7,283.8c0,0.9,0.4,1.3,1.2,1.3c0.3,0,0.6-0.1,0.8-0.2v-0.5c-0.2,0.1-0.4,0.1-0.7,0.1
	c-0.5,0-0.7-0.2-0.7-0.8v-3.3h1.4V280h-1.4v-1.7h-0.5v1.1c0,0.5-0.1,0.6-0.4,0.6H28v0.5h0.7V283.8z M34.1,279.9
	c-1,0-1.6,0.7-1.8,1.4l0,0c0-0.4,0-0.8,0-1.3v-2.2h-0.6v7.2h0.6v-2.5c0-1.2,0.7-2.1,1.6-2.1c0.8,0,1.2,0.4,1.2,1.4v3.2h0.6v-3.3
	C35.7,280.5,35.1,279.9,34.1,279.9z M41.2,282.6c0-0.1,0-0.2,0-0.3c0-1.5-0.8-2.4-2-2.4s-2.1,1-2.1,2.6s0.8,2.6,2.2,2.6
	c1.2,0,1.9-0.9,1.9-1.7h-0.5c-0.1,0.6-0.5,1.2-1.4,1.2c-1,0-1.6-0.7-1.6-2L41.2,282.6L41.2,282.6z M39.2,280.4
	c0.8,0,1.5,0.6,1.5,1.8h-3C37.7,281,38.4,280.4,39.2,280.4z M42.6,280v5h0.6v-2.4c0-1.5,0.8-2.1,1.6-2.1c0.2,0,0.3,0,0.5,0.1V280
	c-0.2,0-0.3,0-0.5,0c-0.8,0-1.4,0.6-1.6,1.4l0,0V280H42.6z M51,279.9c-1,0-1.5,0.7-1.7,1.3l0,0V280h-0.6v7.1h0.6v-3.2l0,0
	c0.1,0.4,0.6,1.2,1.6,1.2c1.3,0,2.2-1,2.2-2.6S52.2,279.9,51,279.9z M50.8,284.6c-0.9,0-1.6-0.7-1.6-2v-0.2c0-1.3,0.7-2.1,1.6-2.1
	c0.9,0,1.6,0.8,1.6,2.1C52.5,283.8,51.8,284.6,50.8,284.6z M54.1,284.8v0.2h4.5v-0.5h-3.8c0-0.7,0.7-1.3,1.9-2
	c1.4-0.9,1.9-1.4,1.9-2.4c0-1.1-0.7-1.8-2.1-1.8c-1.3,0-2.2,0.7-2.2,2c0,0.1,0,0.2,0,0.3h0.6c0-0.1,0-0.2,0-0.3c0-1,0.6-1.5,1.6-1.5
	c0.9,0,1.5,0.5,1.5,1.3c0,0.9-0.5,1.3-1.6,2C54.9,282.9,54.1,283.7,54.1,284.8z M62.3,279.9c-1,0-1.5,0.7-1.7,1.3l0,0V280H60v7.1
	h0.6v-3.2l0,0c0.1,0.4,0.6,1.2,1.6,1.2c1.3,0,2.2-1,2.2-2.6C64.4,280.9,63.5,279.9,62.3,279.9z M62.1,284.6c-0.9,0-1.6-0.7-1.6-2
	v-0.2c0-1.3,0.7-2.1,1.6-2.1c0.9,0,1.6,0.8,1.6,2.1C63.8,283.8,63.1,284.6,62.1,284.6z M68.1,280v5h0.6v-2.5c0-1.2,0.7-2.1,1.6-2.1
	c0.8,0,1.2,0.4,1.2,1.4v3.2H72v-3.3c0-1.1-0.6-1.8-1.6-1.8s-1.6,0.7-1.7,1.4l0,0V280H68.1z M73.3,282.5c0,1.6,1,2.6,2.2,2.6
	s2.2-1,2.2-2.6s-0.9-2.6-2.2-2.6C74.3,279.9,73.3,280.9,73.3,282.5z M77.2,282.5c0,1.3-0.7,2.1-1.6,2.1s-1.6-0.8-1.6-2.1
	c0-1.3,0.7-2.1,1.6-2.1S77.2,281.2,77.2,282.5z M82.7,277.8v3.3l0,0c-0.1-0.4-0.6-1.2-1.6-1.2c-1.3,0-2.2,1-2.2,2.6s0.9,2.6,2.1,2.6
	c1,0,1.6-0.7,1.7-1.3l0,0v1.2h0.6v-7.2H82.7z M82.7,282.5c0,1.4-0.7,2.1-1.6,2.1s-1.6-0.8-1.6-2.1c0-1.3,0.7-2.1,1.6-2.1
	s1.6,0.8,1.6,2V282.5z M88.8,282.6c0-0.1,0-0.2,0-0.3c0-1.5-0.8-2.4-2.1-2.4c-1.2,0-2.1,1-2.1,2.6s0.8,2.6,2.2,2.6
	c1.2,0,1.9-0.9,1.9-1.7h-0.5c-0.1,0.6-0.5,1.2-1.4,1.2c-1,0-1.6-0.7-1.6-2L88.8,282.6L88.8,282.6z M86.8,280.4
	c0.8,0,1.5,0.6,1.5,1.8h-3C85.3,281,86,280.4,86.8,280.4z M89.8,283.5c0,1.1,0.8,1.6,1.9,1.6s1.9-0.6,1.9-1.4c0-1-0.6-1.2-1.8-1.5
	c-0.8-0.2-1.3-0.3-1.3-1c0-0.5,0.5-0.9,1.2-0.9c0.8,0,1.2,0.4,1.3,1h0.6c0-1-0.7-1.5-1.8-1.5c-0.9,0-1.8,0.5-1.8,1.4
	c0,1,0.7,1.2,1.8,1.5c0.9,0.3,1.3,0.4,1.3,1c0,0.5-0.4,0.9-1.3,0.9s-1.3-0.3-1.4-1.1H89.8z M48.4,296.1c0,1.9,0.6,3.6,1.5,5.1h0.8
	c-0.8-1.6-1.5-3.1-1.5-5.1s0.7-3.5,1.5-5.1h-0.8C49,292.5,48.4,294.2,48.4,296.1z M55.4,295.5L55.4,295.5c0.8-0.2,1.2-0.7,1.2-1.5
	c0-1.1-0.8-1.7-2.1-1.7h-2.6v6.7h2.7c1.3,0,2.2-0.7,2.2-1.9C56.8,296.2,56.2,295.7,55.4,295.5z M54.4,293.1c0.8,0,1.2,0.3,1.2,1
	s-0.4,1-1.1,1H53v-2H54.4z M54.4,298.1h-1.5V296h1.5c0.8,0,1.3,0.4,1.3,1.1C55.7,297.8,55.2,298.1,54.4,298.1z M58.9,297.9h-1.1v1.1
	h0.4l-0.4,1.4h0.6l0.5-1.5V297.9z M62.2,295.7c0,2,1,3.4,3,3.4c1.7,0,2.6-1.1,2.8-2.6h-1c-0.1,1-0.7,1.7-1.8,1.7c-1.3,0-2-1.1-2-2.5
	c0-1.5,0.7-2.6,2-2.6c1.1,0,1.7,0.9,1.7,1.7h1c-0.1-1.3-1-2.6-2.8-2.6C63.4,292.2,62.2,293.7,62.2,295.7z M70,297.9h-1.1v1.1h0.4
	l-0.4,1.4h0.6l0.5-1.5V297.9z M73.7,292.3v6.7H76c2.1,0,3.3-1.5,3.3-3.4c0-1.8-1.1-3.3-3.2-3.3L73.7,292.3L73.7,292.3z M76,298.1
	h-1.2v-4.9H76c1.6,0,2.2,1.1,2.2,2.4C78.2,297,77.5,298.1,76,298.1z M81.2,297.9h-1.1v1.1h0.4l-0.4,1.4h0.6l0.5-1.5V297.9z
	 M84.6,297.9v1.1h1.1v-1.1H84.6z M86.9,297.9v1.1H88v-1.1H86.9z M89.1,297.9v1.1h1.1v-1.1H89.1z M92.6,296.1c0,2-0.7,3.5-1.5,5.1
	h0.8c0.9-1.5,1.6-3.2,1.6-5.1s-0.7-3.6-1.6-5.1h-0.8C91.9,292.6,92.6,294.1,92.6,296.1z"/>
<path class="st0" d="M281.5,251c0.2,0.2,0.5,0.2,0.7,0l3.2-3.2c0.2-0.2,0.2-0.5,0-0.7s-0.5-0.2-0.7,0l-2.8,2.8l-2.8-2.8
	c-0.2-0.2-0.5-0.2-0.7,0s-0.2,0.5,0,0.7L281.5,251z M281.3,182.6v68h1v-68H281.3z"/>
<path class="st1" d="M282.5,112c0.2,0.2,0.5,0.2,0.7,0l3.2-3.2c0.2-0.2,0.2-0.5,0-0.7s-0.5-0.2-0.7,0l-2.8,2.8l-2.8-2.8
	c-0.2-0.2-0.5-0.2-0.7,0s-0.2,0.5,0,0.7L282.5,112z M282.3,20.6v91h1v-91C283.3,20.6,282.3,20.6,282.3,20.6z"/>
<path class="st1" d="M301.2,25.3c-0.2-0.2-0.5-0.2-0.7,0l-3.2,3.2c-0.2,0.2-0.2,0.5,0,0.7s0.5,0.2,0.7,0l2.8-2.8l2.8,2.8
	c0.2,0.2,0.5,0.2,0.7,0s0.2-0.5,0-0.7L301.2,25.3z M301.3,121.6v-96h-1v96H301.3z"/>
<path class="st1" d="M432.5,251c0.2,0.2,0.5,0.2,0.7,0l3.2-3.2c0.2-0.2,0.2-0.5,0-0.7s-0.5-0.2-0.7,0l-2.8,2.8l-2.8-2.8
	c-0.2-0.2-0.5-0.2-0.7,0s-0.2,0.5,0,0.7L432.5,251z M321.8,142.1h99v-1h-99V142.1z M432.3,153.6v97h1v-97H432.3z M420.8,142.1
	c6.4,0,11.5,5.1,11.5,11.5h1c0-6.9-5.6-12.5-12.5-12.5V142.1z"/>
<path class="st1" d="M329.5,157.3c-0.2,0.2-0.2,0.5,0,0.7l3.2,3.2c0.2,0.2,0.5,0.2,0.7,0s0.2-0.5,0-0.7l-2.8-2.8l2.8-2.8
	c0.2-0.2,0.2-0.5,0-0.7s-0.5-0.2-0.7,0L329.5,157.3z M329.8,158.1h80v-1h-80V158.1z M415.3,163.6v94h1v-94H415.3z M409.8,158.1
	c3,0,5.5,2.5,5.5,5.5h1c0-3.6-2.9-6.5-6.5-6.5V158.1z"/>
<path class="st0" d="M148.2,251c-0.2,0.2-0.5,0.2-0.7,0l-3.2-3.2c-0.2-0.2-0.2-0.5,0-0.7s0.5-0.2,0.7,0l2.8,2.8l2.8-2.8
	c0.2-0.2,0.5-0.2,0.7,0s0.2,0.5,0,0.7L148.2,251z M258.8,142.1h-99v-1h99V142.1z M148.3,153.6v97h-1v-97H148.3z M159.8,142.1
	c-6.4,0-11.5,5.1-11.5,11.5h-1c0-6.9,5.6-12.5,12.5-12.5V142.1z"/>
<path class="st0" d="M251.2,157.3c0.2,0.2,0.2,0.5,0,0.7l-3.2,3.2c-0.2,0.2-0.5,0.2-0.7,0s-0.2-0.5,0-0.7l2.8-2.8l-2.8-2.8
	c-0.2-0.2-0.2-0.5,0-0.7s0.5-0.2,0.7,0L251.2,157.3z M250.8,158.1h-80v-1h80V158.1z M165.3,163.6v94h-1v-94H165.3z M170.8,158.1
	c-3,0-5.5,2.5-5.5,5.5h-1c0-3.6,2.9-6.5,6.5-6.5V158.1z"/>
<path class="st2" d="M262.9,12.1c0,1.1,0.8,1.6,1.9,1.6s1.9-0.6,1.9-1.4c0-1-0.6-1.2-1.8-1.5c-0.8-0.2-1.3-0.3-1.3-1
	c0-0.5,0.5-0.8,1.2-0.8c0.8,0,1.2,0.4,1.3,1.1h0.6c0-1-0.7-1.5-1.8-1.5c-1,0-1.8,0.5-1.8,1.4c0,1,0.7,1.2,1.8,1.5
	c0.9,0.3,1.3,0.4,1.3,1c0,0.5-0.4,0.9-1.3,0.9c-0.8,0-1.3-0.3-1.4-1.1h-0.6V12.1z M271.8,11.2c0-0.1,0-0.2,0-0.3
	c0-1.5-0.8-2.4-2-2.4s-2.1,1-2.1,2.6s0.8,2.6,2.2,2.6c1.2,0,1.9-0.9,1.9-1.7h-0.5c-0.1,0.6-0.5,1.2-1.4,1.2c-1,0-1.6-0.7-1.6-2
	C268.3,11.2,271.8,11.2,271.8,11.2z M269.8,9c0.9,0,1.5,0.6,1.5,1.8h-3C268.4,9.6,269,9,269.8,9z M272.9,12.4c0,0.8,0.5,1.3,1.5,1.3
	c0.8,0,1.4-0.4,1.7-1.1l0,0c0,0.8,0.2,1,0.7,1c0.2,0,0.3,0,0.4-0.1v-0.4c-0.1,0-0.2,0.1-0.2,0.1c-0.3,0-0.4-0.2-0.4-0.9v-1.9
	c0-1.2-0.6-1.9-1.7-1.9s-1.8,0.6-1.8,1.5c0,0.1,0,0.2,0,0.2h0.5c0-0.1,0-0.2,0-0.3c0-0.6,0.5-1,1.3-1s1.2,0.4,1.2,1.4v0.4
	C274.2,10.9,272.9,11.1,272.9,12.4z M276.1,12c-0.3,0.9-0.9,1.3-1.5,1.3c-0.7,0-1.1-0.3-1.1-0.9c0-0.8,0.9-1.1,2.6-1.1V12z
	 M278.4,8.6v5h0.6v-2.4c0-1.5,0.8-2.1,1.6-2.1c0.2,0,0.3,0,0.5,0.1V8.6c-0.2,0-0.3,0-0.5,0c-0.8,0-1.4,0.6-1.6,1.4l0,0V8.6H278.4z
	 M281.7,11.2c0,1.6,0.9,2.5,2.2,2.5c1.2,0,1.8-0.8,2-1.9h-0.6c-0.1,0.8-0.5,1.4-1.4,1.4s-1.6-0.8-1.6-2.1c0-1.4,0.7-2.1,1.6-2.1
	c1,0,1.4,0.7,1.4,1.4h0.6c0-1-0.7-1.9-1.9-1.9C282.6,8.5,281.7,9.5,281.7,11.2z M289.5,8.5c-1,0-1.6,0.7-1.8,1.4l0,0
	c0-0.4,0-0.8,0-1.3V6.4h-0.6v7.2h0.6v-2.5c0-1.2,0.7-2.1,1.6-2.1c0.8,0,1.2,0.4,1.2,1.4v3.2h0.6v-3.3C291.1,9.2,290.5,8.5,289.5,8.5
	z M298.6,8.6v1.1l0,0c-0.1-0.5-0.6-1.2-1.6-1.2c-1.3,0-2.2,1-2.2,2.6s0.9,2.6,2.1,2.6c1,0,1.5-0.7,1.7-1.3l0,0c0,0.2,0,0.5,0,0.7
	v2.6h0.6V8.6H298.6z M298.5,11.1c0,1.3-0.7,2.1-1.6,2.1s-1.6-0.8-1.6-2.1S296,9,297,9c0.9,0,1.6,0.8,1.6,2v0.1H298.5z M300.7,12
	c0,1.1,0.6,1.8,1.6,1.8c0.9,0,1.5-0.7,1.6-1.4l0,0v1.3h0.6v-5H304v2.5c0,1.2-0.6,2.1-1.5,2.1c-0.8,0-1.1-0.5-1.1-1.4V8.6h-0.6
	L300.7,12L300.7,12z M310.1,11.2c0-0.1,0-0.2,0-0.3c0-1.5-0.8-2.4-2.1-2.4c-1.2,0-2.1,1-2.1,2.6s0.8,2.6,2.2,2.6
	c1.2,0,1.9-0.9,1.9-1.7h-0.5c-0.1,0.6-0.5,1.2-1.4,1.2c-1,0-1.6-0.7-1.6-2C306.5,11.2,310.1,11.2,310.1,11.2z M308.1,9
	c0.9,0,1.5,0.6,1.5,1.8h-3C306.6,9.6,307.3,9,308.1,9z M311.5,8.6v5h0.6v-2.4c0-1.5,0.8-2.1,1.6-2.1c0.2,0,0.3,0,0.5,0.1V8.6
	c-0.2,0-0.3,0-0.5,0c-0.8,0-1.4,0.6-1.6,1.4l0,0V8.6H311.5z M314.7,15.8c0.2,0,0.4,0.1,0.7,0.1c0.9,0,1.2-0.7,1.6-1.8l2.1-5.5h-0.6
	l-1.4,3.7c-0.1,0.2-0.2,0.4-0.2,0.7l0,0c-0.1-0.2-0.2-0.5-0.3-0.7l-1.4-3.6h-0.6l1.9,5l-0.2,0.5c-0.3,0.8-0.5,1.3-1.1,1.3
	c-0.3,0-0.4-0.1-0.6-0.1v0.4H314.7z"/>
<path class="st1" d="M324.3,180.5v6.2h0.6v-6.2h2.3V180H322v0.5H324.3z M330.5,181.5c-1,0-1.6,0.7-1.8,1.4l0,0c0-0.4,0-0.8,0-1.3
	v-2.2h-0.6v7.2h0.6v-2.5c0-1.2,0.7-2.1,1.6-2.1c0.8,0,1.2,0.4,1.2,1.4v3.2h0.6v-3.3C332,182.2,331.4,181.5,330.5,181.5z
	 M333.6,179.8v0.7h0.6v-0.7H333.6z M333.6,181.6v5h0.6v-5H333.6z M335.5,185.1c0,1.1,0.8,1.6,1.9,1.6s1.9-0.6,1.9-1.4
	c0-1-0.6-1.2-1.8-1.5c-0.8-0.2-1.3-0.3-1.3-1c0-0.5,0.5-0.8,1.2-0.8c0.8,0,1.2,0.4,1.3,1h0.6c0-1-0.7-1.5-1.8-1.5
	c-1,0-1.8,0.5-1.8,1.4c0,1,0.7,1.2,1.8,1.5c0.9,0.3,1.3,0.4,1.3,1c0,0.5-0.4,0.9-1.3,0.9c-0.8,0-1.3-0.3-1.4-1.1L335.5,185.1
	L335.5,185.1z M342.9,181.6v5h0.6v-2.5c0-1.2,0.7-2.1,1.6-2.1c0.8,0,1.2,0.4,1.2,1.4v3.2h0.6v-3.3c0-1.1-0.6-1.8-1.6-1.8
	s-1.6,0.7-1.7,1.4l0,0v-1.3L342.9,181.6L342.9,181.6z M348.1,184.1c0,1.6,0.9,2.6,2.2,2.6c1.2,0,2.2-1,2.2-2.6s-0.9-2.6-2.2-2.6
	C349.1,181.5,348.1,182.5,348.1,184.1z M352,184.1c0,1.3-0.7,2.1-1.6,2.1s-1.6-0.8-1.6-2.1s0.7-2.1,1.6-2.1S352,182.8,352,184.1z
	 M357.5,179.4v3.3l0,0c-0.1-0.4-0.6-1.2-1.6-1.2c-1.3,0-2.2,1-2.2,2.6s0.9,2.6,2.1,2.6c1,0,1.6-0.7,1.7-1.3l0,0v1.2h0.6v-7.2
	L357.5,179.4L357.5,179.4z M357.5,184.1c0,1.3-0.7,2.1-1.6,2.1s-1.6-0.8-1.6-2.1s0.7-2.1,1.6-2.1s1.6,0.8,1.6,2V184.1z M363.6,184.2
	c0-0.1,0-0.2,0-0.3c0-1.5-0.8-2.4-2-2.4s-2.1,1-2.1,2.6s0.8,2.6,2.2,2.6c1.2,0,1.9-0.9,1.9-1.7H363c-0.1,0.6-0.5,1.2-1.4,1.2
	c-1,0-1.6-0.7-1.6-2L363.6,184.2L363.6,184.2z M361.6,182c0.9,0,1.5,0.6,1.5,1.8h-3C360.1,182.6,360.8,182,361.6,182z M322.4,197.7
	c0,1.9,0.6,3.6,1.5,5.1h0.8c-0.8-1.6-1.5-3.1-1.5-5.1s0.7-3.5,1.5-5.1H324C323.1,194.1,322.4,195.8,322.4,197.7z M330.3,200.6h1.1
	l-2.5-6.7h-1.1l-2.5,6.7h1.1l0.6-1.6h2.8L330.3,200.6z M327.2,198.2l0.8-2.2c0.1-0.2,0.2-0.5,0.3-0.8l0,0c0.1,0.3,0.2,0.6,0.3,0.8
	l0.8,2.2H327.2z M333.3,197.7c0,2-0.7,3.5-1.5,5.1h0.8c0.9-1.5,1.6-3.2,1.6-5.1c0-1.9-0.7-3.6-1.6-5.1h-0.8
	C332.6,194.2,333.3,195.7,333.3,197.7z"/>
<path class="st0" d="M322.4,80.5c0,1.6,0.9,2.3,2.4,2.3s2.3-0.8,2.3-1.9c0-1.2-0.8-1.6-2.2-1.9c-1.2-0.2-1.8-0.5-1.8-1.4
	c0-0.7,0.6-1.2,1.6-1.2c1.1,0,1.8,0.5,1.8,1.6h0.6c0-1.4-1-2.2-2.4-2.2c-1.3,0-2.2,0.7-2.2,1.8c0,1.2,0.9,1.6,2.2,1.9
	c1.3,0.3,1.8,0.5,1.8,1.4c0,0.8-0.6,1.3-1.7,1.3c-1.2,0-1.9-0.5-1.9-1.7L322.4,80.5L322.4,80.5z M332.6,80.2c0-0.1,0-0.2,0-0.3
	c0-1.5-0.8-2.4-2-2.4s-2.1,1-2.1,2.6s0.8,2.6,2.2,2.6c1.2,0,1.9-0.8,1.9-1.7H332c-0.1,0.6-0.5,1.2-1.4,1.2c-1,0-1.6-0.7-1.6-2
	C329,80.2,332.6,80.2,332.6,80.2z M330.5,78c0.8,0,1.4,0.6,1.5,1.8h-3C329.1,78.6,329.7,78,330.5,78z M333.6,81.4
	c0,0.8,0.5,1.3,1.5,1.3c0.8,0,1.4-0.4,1.7-1.1l0,0c0,0.8,0.2,1.1,0.7,1.1c0.2,0,0.3-0.1,0.4-0.1v-0.4c-0.1,0-0.1,0.1-0.2,0.1
	c-0.3,0-0.4-0.2-0.4-0.9v-1.9c0-1.2-0.6-1.9-1.7-1.9s-1.8,0.6-1.8,1.5c0,0.1,0,0.1,0,0.2h0.5c0-0.1,0-0.2,0-0.3c0-0.6,0.5-1,1.3-1
	s1.2,0.4,1.2,1.4v0.4C334.9,79.9,333.6,80.1,333.6,81.4z M336.8,81c-0.3,0.9-0.9,1.3-1.5,1.3c-0.7,0-1.1-0.3-1.1-0.9
	c0-0.8,0.9-1.1,2.6-1.1V81z M339.1,77.6v5h0.6v-2.4c0-1.5,0.8-2.1,1.6-2.1c0.2,0,0.3,0,0.5,0.1v-0.6c-0.2,0-0.3,0-0.5,0
	c-0.8,0-1.4,0.6-1.6,1.4l0,0v-1.4H339.1z M342.4,80.2c0,1.6,0.9,2.5,2.2,2.5c1.2,0,1.8-0.8,2-1.9H346c-0.1,0.8-0.5,1.4-1.4,1.4
	s-1.6-0.8-1.6-2.1c0-1.3,0.7-2.2,1.6-2.2s1.3,0.7,1.4,1.4h0.6c0-1-0.7-1.9-1.9-1.9C343.3,77.5,342.4,78.5,342.4,80.2z M350.2,77.5
	c-1,0-1.6,0.7-1.8,1.3l0,0c0-0.4,0-0.8,0-1.3v-2.2h-0.6v7.2h0.6V80c0-1.2,0.7-2.1,1.6-2.1c0.8,0,1.2,0.4,1.2,1.4v3.2h0.6v-3.3
	C351.8,78.2,351.2,77.5,350.2,77.5z M355.8,77.6v5h0.6v-2.4c0-1.5,0.8-2.1,1.6-2.1c0.2,0,0.3,0,0.5,0.1v-0.6c-0.2,0-0.3,0-0.5,0
	c-0.8,0-1.4,0.6-1.6,1.4l0,0v-1.4H355.8z M363.2,80.2c0-0.1,0-0.2,0-0.3c0-1.5-0.8-2.4-2.1-2.4c-1.2,0-2.1,1-2.1,2.6
	s0.8,2.6,2.2,2.6c1.2,0,1.9-0.8,1.9-1.7h-0.5c-0.1,0.6-0.5,1.2-1.4,1.2c-1,0-1.6-0.7-1.6-2C359.6,80.2,363.2,80.2,363.2,80.2z
	 M361.2,78c0.9,0,1.5,0.6,1.5,1.8h-3C359.7,78.6,360.4,78,361.2,78z M364.3,81.1c0,1.1,0.8,1.6,1.9,1.6s1.9-0.6,1.9-1.4
	c0-1-0.6-1.2-1.8-1.5c-0.8-0.2-1.3-0.3-1.3-1c0-0.5,0.5-0.9,1.2-0.9c0.8,0,1.2,0.4,1.3,1.1h0.6c0-1-0.7-1.5-1.8-1.5
	c-0.9,0-1.8,0.5-1.8,1.4c0,1,0.7,1.2,1.8,1.5c0.9,0.3,1.3,0.4,1.3,1c0,0.5-0.4,0.9-1.3,0.9c-0.8,0-1.3-0.3-1.4-1.1L364.3,81.1
	L364.3,81.1z M369.2,81c0,1.2,0.6,1.8,1.6,1.8c0.9,0,1.5-0.7,1.6-1.3l0,0v1.3h0.6v-5h-0.6v2.5c0,1.2-0.7,2.1-1.5,2.1
	s-1.1-0.5-1.1-1.4v-3.2h-0.6V81z M374.8,75.4v7.2h0.6v-7.2H374.8z M377.2,81.5c0,0.9,0.4,1.3,1.2,1.3c0.3,0,0.6-0.1,0.8-0.2v-0.5
	c-0.2,0.1-0.4,0.2-0.7,0.2c-0.5,0-0.7-0.2-0.7-0.8v-3.3h1.4v-0.5h-1.4V76h-0.5v1.1c0,0.5-0.1,0.6-0.4,0.6h-0.4v0.5h0.7V81.5z
	 M379.9,81.1c0,1.1,0.8,1.6,1.9,1.6s1.9-0.6,1.9-1.4c0-1-0.6-1.2-1.8-1.5c-0.8-0.2-1.3-0.3-1.3-1c0-0.5,0.5-0.9,1.2-0.9
	c0.8,0,1.2,0.4,1.3,1.1h0.6c0-1-0.7-1.5-1.8-1.5c-1,0-1.8,0.5-1.8,1.4c0,1,0.7,1.2,1.8,1.5c0.9,0.3,1.3,0.4,1.3,1
	c0,0.5-0.4,0.9-1.3,0.9c-0.8,0-1.3-0.3-1.4-1.1L379.9,81.1L379.9,81.1z M322.4,93.7c0,1.9,0.6,3.6,1.5,5.1h0.8
	c-0.8-1.6-1.5-3.1-1.5-5.1s0.7-3.5,1.5-5.1H324C323.1,90.1,322.4,91.8,322.4,93.7z M330.3,96.6h1.1l-2.5-6.7h-1.1l-2.5,6.7h1.1
	L327,95h2.8L330.3,96.6z M327.2,94.2L328,92c0.1-0.2,0.2-0.5,0.3-0.8l0,0c0.1,0.3,0.2,0.6,0.3,0.8l0.8,2.2H327.2z M333.4,95.6h-1.1
	v1.1h0.4l-0.4,1.4h0.6l0.5-1.5V95.6z M340.7,93.2L340.7,93.2c0.8-0.2,1.2-0.7,1.2-1.5c0-1.1-0.8-1.7-2.1-1.7h-2.6v6.7h2.7
	c1.3,0,2.2-0.7,2.2-1.9C342,93.8,341.5,93.3,340.7,93.2z M339.6,90.8c0.8,0,1.2,0.3,1.2,1s-0.4,1-1.1,1h-1.5v-2H339.6z M339.7,95.8
	h-1.5v-2.2h1.5c0.8,0,1.3,0.3,1.3,1.1C340.9,95.4,340.4,95.8,339.7,95.8z M344.1,95.6H343v1.1h0.4L343,98h0.6l0.5-1.5V95.6z
	 M347.5,93.3c0,2,1,3.4,3,3.4c1.7,0,2.6-1.1,2.8-2.6h-1c-0.1,1-0.7,1.7-1.8,1.7c-1.3,0-2-1.1-2-2.5c0-1.5,0.7-2.6,2-2.6
	c1.1,0,1.6,0.9,1.7,1.7h1c-0.1-1.3-1-2.6-2.8-2.6C348.6,89.8,347.5,91.3,347.5,93.3z M355.2,95.6h-1.1v1.1h0.4l-0.4,1.4h0.6l0.5-1.5
	V95.6z M358.9,89.9v6.7h2.3c2.1,0,3.3-1.5,3.3-3.4c0-1.8-1.1-3.3-3.2-3.3C361.3,89.9,358.9,89.9,358.9,89.9z M361.2,95.7H360v-4.9
	h1.2c1.5,0,2.2,1.1,2.2,2.4C363.4,94.7,362.7,95.7,361.2,95.7z M366.7,93.7c0,2-0.7,3.5-1.5,5.1h0.8c0.9-1.5,1.6-3.2,1.6-5.1
	s-0.7-3.6-1.6-5.1h-0.8C366.1,90.2,366.7,91.7,366.7,93.7z"/>
<path class="st0" d="M156.9,344.1L156.9,344.1c0.8-0.2,1.2-0.8,1.2-1.5c0-1.1-0.7-1.7-2-1.7h-2.3v6.7h2.4c1.2,0,2.1-0.7,2.1-1.9
	C158.3,344.9,157.7,344.3,156.9,344.1z M156,341.4c1,0,1.5,0.4,1.5,1.2s-0.6,1.3-1.4,1.3h-1.7v-2.5H156z M156.1,347.1h-1.8v-2.7h1.8
	c0.9,0,1.6,0.4,1.6,1.3C157.7,346.6,157.1,347.1,156.1,347.1z"/>
<path class="st0" d="M287.1,344.3c0,2,1,3.4,2.9,3.4c1.6,0,2.4-1.1,2.6-2.4H292c-0.2,1-0.8,1.9-2,1.9c-1.5,0-2.3-1.3-2.3-2.9
	c0-1.7,0.8-3,2.3-3c1.3,0,1.9,1,2,1.9h0.6c-0.1-1.2-1-2.4-2.6-2.4C288.2,340.8,287.1,342.3,287.1,344.3z"/>
<path class="st0" d="M424.4,340.9v6.7h2.1c2.1,0,3.2-1.5,3.2-3.4c0-1.8-1.1-3.3-3.2-3.3L424.4,340.9L424.4,340.9z M426.5,347.1H425
	v-5.6h1.5c1.8,0,2.6,1.2,2.6,2.8C429.1,345.9,428.3,347.1,426.5,347.1z"/>
<linearGradient id="SVGID_1_" gradientUnits="userSpaceOnUse" x1="283.9091" y1="263.6594" x2="282.8751" y2="352.5915" gradientTransform="matrix(1 0 0 1 0 -242)">
	<stop  offset="0" style="stop-color:#32E6BE"/>
	<stop  offset="1" style="stop-color:#32E6BE;stop-opacity:0"/>
</linearGradient>
<path class="st3" d="M282.5,112c0.2,0.2,0.5,0.2,0.7,0l3.2-3.2c0.2-0.2,0.2-0.5,0-0.7s-0.5-0.2-0.7,0l-2.8,2.8l-2.8-2.8
	c-0.2-0.2-0.5-0.2-0.7,0s-0.2,0.5,0,0.7L282.5,112z M282.3,20.6v91h1v-91C283.3,20.6,282.3,20.6,282.3,20.6z"/>
<linearGradient id="SVGID_2_" gradientUnits="userSpaceOnUse" x1="281.9" y1="424.6" x2="281.9" y2="491.183" gradientTransform="matrix(1 0 0 1 0 -242)">
	<stop  offset="0" style="stop-color:#B68AD4"/>
	<stop  offset="1" style="stop-color:#B68AD4;stop-opacity:0"/>
</linearGradient>
<path class="st4" d="M281.5,251c0.2,0.2,0.5,0.2,0.7,0l3.2-3.2c0.2-0.2,0.2-0.5,0-0.7s-0.5-0.2-0.7,0l-2.8,2.8l-2.8-2.8
	c-0.2-0.2-0.5-0.2-0.7,0s-0.2,0.5,0,0.7L281.5,251z M281.3,182.6v68h1v-68H281.3z"/>
<path class="st1" d="M299.2,189c-0.2-0.2-0.5-0.2-0.7,0l-3.2,3.2c-0.2,0.2-0.2,0.5,0,0.7s0.5,0.2,0.7,0l2.8-2.8l2.8,2.8
	c0.2,0.2,0.5,0.2,0.7,0s0.2-0.5,0-0.7L299.2,189z"/>
<rect x="298.4" y="189.4" class="st0" width="1" height="68"/>
<linearGradient id="SVGID_3_" gradientUnits="userSpaceOnUse" x1="304.6837" y1="418.3488" x2="304.6837" y2="484.3976" gradientTransform="matrix(1 0 0 1 -5.8278 -228.9476)">
	<stop  offset="0" style="stop-color:#B68AD4"/>
	<stop  offset="1" style="stop-color:#B68AD4;stop-opacity:0"/>
</linearGradient>
<rect x="298.4" y="189.4" class="st5" width="1" height="68"/>
<linearGradient id="SVGID_4_" gradientUnits="userSpaceOnUse" x1="300.8" y1="269.8067" x2="300.8" y2="360.8979" gradientTransform="matrix(1 0 0 1 0 -242)">
	<stop  offset="0" style="stop-color:#32E6BE"/>
	<stop  offset="1" style="stop-color:#32E6BE;stop-opacity:0"/>
</linearGradient>
<path class="st6" d="M301.2,25.3c-0.2-0.2-0.5-0.2-0.7,0l-3.2,3.2c-0.2,0.2-0.2,0.5,0,0.7s0.5,0.2,0.7,0l2.8-2.8l2.8,2.8
	c0.2,0.2,0.5,0.2,0.7,0s0.2-0.5,0-0.7L301.2,25.3z M301.3,121.6v-96h-1v96H301.3z"/>
<linearGradient id="SVGID_5_" gradientUnits="userSpaceOnUse" x1="379.175" y1="383.6249" x2="379.175" y2="492.6249" gradientTransform="matrix(1 0 0 1 0 -242)">
	<stop  offset="0" style="stop-color:#FFFFFF;stop-opacity:0"/>
	<stop  offset="1" style="stop-color:#32E6BE"/>
</linearGradient>
<path class="st7" d="M432.5,251c0.2,0.2,0.5,0.2,0.7,0l3.2-3.2c0.2-0.2,0.2-0.5,0-0.7s-0.5-0.2-0.7,0l-2.8,2.8l-2.8-2.8
	c-0.2-0.2-0.5-0.2-0.7,0s-0.2,0.5,0,0.7L432.5,251z M321.8,142.1h99v-1h-99V142.1z M432.3,153.6v97h1v-97H432.3z M420.8,142.1
	c6.4,0,11.5,5.1,11.5,11.5h1c0-6.9-5.6-12.5-12.5-12.5V142.1z"/>
<linearGradient id="SVGID_6_" gradientUnits="userSpaceOnUse" x1="372.825" y1="399.6249" x2="372.825" y2="499.6249" gradientTransform="matrix(1 0 0 1 0 -242)">
	<stop  offset="0" style="stop-color:#FFFFFF;stop-opacity:0"/>
	<stop  offset="1" style="stop-color:#32E6BE"/>
</linearGradient>
<path class="st8" d="M329.5,157.3c-0.2,0.2-0.2,0.5,0,0.7l3.2,3.2c0.2,0.2,0.5,0.2,0.7,0s0.2-0.5,0-0.7l-2.8-2.8l2.8-2.8
	c0.2-0.2,0.2-0.5,0-0.7s-0.5-0.2-0.7,0L329.5,157.3z M329.8,158.1h80v-1h-80V158.1z M415.3,163.6v94h1v-94H415.3z M409.8,158.1
	c3,0,5.5,2.5,5.5,5.5h1c0-3.6-2.9-6.5-6.5-6.5V158.1z"/>
<path class="st0" d="M435.8,276.6H418l-4.2,6.8v4.2h4.3l-4.3,6.2v6.9h17.4l4.6-7.1v-3.9h-4.4l4.4-6.5V276.6L435.8,276.6z
	 M432.6,282.2l-7.1,10.5h7l-3.1,4.8h-12.3v-2.8l7.1-10.2h-7.1v-0.2l2.8-4.5h12.7V282.2L432.6,282.2z"/>
<circle class="st9" cx="424.3" cy="289.1" r="32"/>
<path class="st0" d="M301.8,276.6H284l-4.2,6.8v4.2h4.3l-4.3,6.2v6.9h17.4l4.6-7.1v-3.9h-4.4l4.4-6.5V276.6L301.8,276.6z
	 M298.6,282.2l-7.1,10.5h7l-3.1,4.8h-12.3v-2.8l7.1-10.2h-7.1v-0.2l2.8-4.5h12.7V282.2L298.6,282.2z"/>
<circle class="st9" cx="290.3" cy="289.1" r="32"/>
<path class="st10" d="M228.8,0.6h124c5.5,0,10,4.5,10,10l0,0c0,5.5-4.5,10-10,10h-124c-5.5,0-10-4.5-10-10l0,0
	C218.8,5.1,223.3,0.6,228.8,0.6z"/>
<circle class="st0" cx="488.8" cy="289.6" r="2"/>
<circle class="st0" cx="499.8" cy="289.6" r="2"/>
<circle class="st0" cx="510.8" cy="289.6" r="2"/>
<linearGradient id="SVGID_7_" gradientUnits="userSpaceOnUse" x1="201.475" y1="383.6249" x2="201.475" y2="492.6249" gradientTransform="matrix(1 0 0 1 0 -242)">
	<stop  offset="0" style="stop-color:#B985DC"/>
	<stop  offset="1" style="stop-color:#B985DC;stop-opacity:0"/>
</linearGradient>
<path class="st11" d="M148.2,251c-0.2,0.2-0.5,0.2-0.7,0l-3.2-3.2c-0.2-0.2-0.2-0.5,0-0.7s0.5-0.2,0.7,0l2.8,2.8l2.8-2.8
	c0.2-0.2,0.5-0.2,0.7,0s0.2,0.5,0,0.7L148.2,251z M258.8,142.1h-99v-1h99V142.1z M148.3,153.6v97h-1v-97H148.3z M159.8,142.1
	c-6.4,0-11.5,5.1-11.5,11.5h-1c0-6.9,5.6-12.5,12.5-12.5V142.1z"/>
<linearGradient id="SVGID_8_" gradientUnits="userSpaceOnUse" x1="207.825" y1="399.6249" x2="207.825" y2="499.6249" gradientTransform="matrix(1 0 0 1 0 -242)">
	<stop  offset="0" style="stop-color:#B985DC"/>
	<stop  offset="1" style="stop-color:#B985DC;stop-opacity:0"/>
</linearGradient>
<path class="st12" d="M251.2,157.3c0.2,0.2,0.2,0.5,0,0.7l-3.2,3.2c-0.2,0.2-0.5,0.2-0.7,0s-0.2-0.5,0-0.7l2.8-2.8l-2.8-2.8
	c-0.2-0.2-0.2-0.5,0-0.7s0.5-0.2,0.7,0L251.2,157.3z M250.8,158.1h-80v-1h80V158.1z M165.3,163.6v94h-1v-94H165.3z M170.8,158.1
	c-3,0-5.5,2.5-5.5,5.5h-1c0-3.6,2.9-6.5,6.5-6.5V158.1z"/>
<path class="st0" d="M166.8,277.6H149l-4.2,6.8v4.2h4.3l-4.3,6.2v6.9h17.4l4.6-7.1v-3.9h-4.4l4.4-6.5V277.6L166.8,277.6z
	 M163.6,283.2l-7.1,10.5h7l-3.1,4.8h-12.3v-2.8l7.1-10.2h-7.1v-0.2l2.8-4.5h12.7L163.6,283.2L163.6,283.2z"/>
<circle class="st9" cx="156.3" cy="289.1" r="32"/>
<path class="st13" d="M300.8,138.6H283l-4.2,6.8v4.2h4.3l-4.3,6.2v6.9h17.4l4.6-7.1v-3.9h-4.4l4.4-6.5V138.6L300.8,138.6z
	 M297.6,144.2l-7.1,10.5h7l-3.1,4.8h-12.3v-2.8l7.1-10.2h-7.1v-0.2l2.8-4.5h12.7V144.2L297.6,144.2z"/>
<circle class="st14" cx="290.3" cy="151.1" r="32"/>
<path class="st15" d="M282.8,61.6c3.9,0,7-3.1,7-7s-3.1-7-7-7s-7,3.1-7,7S279,61.6,282.8,61.6z"/>
<path class="st0" d="M282.7,57v-3.8c-0.2,0.3-0.5,0.3-1.1,0.4v-0.8c0.5,0,0.8-0.3,1.1-0.5h0.9V57H282.7z"/>
<g>
	<path class="st15" d="M147.8,190.6c3.9,0,7-3.1,7-7s-3.1-7-7-7s-7,3.1-7,7S144,190.6,147.8,190.6z"/>
	<path class="st0" d="M147.8,183.5c0.7-0.3,0.9-0.6,0.9-1s-0.3-0.7-0.7-0.7c-0.5,0-0.9,0.3-0.9,0.8c0,0.1,0,0.1,0,0.2h-0.9
		c0-0.1,0-0.1,0-0.2c0-1,0.7-1.6,1.8-1.6c1,0,1.7,0.5,1.7,1.4c0,0.7-0.4,1.1-1.3,1.7c-0.8,0.3-1.1,0.6-1.2,1h2.4v0.8h-3.4v-0.2
		C146.1,184.8,146.5,184.1,147.8,183.5z"/>
</g>
<g>
	<path class="st15" d="M432.9,190.6c3.9,0,7-3.1,7-7s-3.1-7-7-7s-7,3.1-7,7S429.1,190.6,432.9,190.6z"/>
	<path class="st0" d="M432.9,183.5c0.7-0.3,0.9-0.6,0.9-1s-0.3-0.7-0.7-0.7c-0.5,0-0.9,0.3-0.9,0.8c0,0.1,0,0.1,0,0.2h-0.9
		c0-0.1,0-0.1,0-0.2c0-1,0.7-1.6,1.8-1.6c1,0,1.7,0.5,1.7,1.4c0,0.7-0.4,1.1-1.3,1.7c-0.8,0.3-1.1,0.6-1.2,1h2.4v0.8h-3.4v-0.2
		C431.2,184.8,431.6,184.1,432.9,183.5z"/>
</g>
<path class="st15" d="M281.8,215.6c3.9,0,7-3.1,7-7s-3.1-7-7-7s-7,3.1-7,7S278,215.6,281.8,215.6z"/>
<path class="st0" d="M281.8,208.5c0.7-0.3,0.9-0.6,0.9-1s-0.3-0.7-0.7-0.7c-0.5,0-0.9,0.3-0.9,0.8c0,0.1,0,0.1,0,0.2h-0.9
	c0-0.1,0-0.1,0-0.2c0-1,0.7-1.6,1.8-1.6c1,0,1.7,0.5,1.7,1.4c0,0.7-0.4,1.1-1.3,1.7c-0.8,0.3-1.1,0.6-1.2,1h2.4v0.8h-3.4v-0.2
	C280.1,209.8,280.5,209.1,281.8,208.5z"/>
<path class="st15" d="M300.8,86.6c3.9,0,7-3.1,7-7s-3.1-7-7-7s-7,3.1-7,7S297,86.6,300.8,86.6z"/>
<path class="st0" d="M298.6,81.2v-0.9l2.5-3.4h1.1v3.4h0.8v0.8h-0.8v1.1h-1v-1H298.6z M301.2,80.3v-1.9v-0.3c0,0.1-0.1,0.2-0.2,0.3
	l-1.1,1.5c-0.1,0.2-0.2,0.3-0.3,0.4c0.1,0,0.2,0,0.3,0H301.2z"/>
<g>
	<path class="st15" d="M298.8,242.6c3.9,0,7-3.1,7-7s-3.1-7-7-7s-7,3.1-7,7S295,242.6,298.8,242.6z"/>
	<path class="st0" d="M297.7,236.6c0,0.6,0.4,0.9,1,0.9s1-0.3,1-0.9s-0.4-0.7-1.1-0.7h-0.5v-0.7h0.5c0.7,0,1.1-0.3,1.1-0.8
		c0-0.4-0.3-0.8-0.9-0.8s-0.9,0.3-0.9,0.8v0.1h-1c0-0.1,0-0.1,0-0.2c0-1,0.8-1.7,1.9-1.7c1.2,0,1.8,0.6,1.8,1.5c0,0.7-0.4,1.1-1,1.2
		c0.7,0.1,1.1,0.5,1.1,1.2c0,1-0.8,1.6-2,1.6c-1.4,0-2-0.7-2-1.8h1V236.6z"/>
</g>
<g>
	<path class="st15" d="M164.8,215.6c3.9,0,7-3.1,7-7s-3.1-7-7-7s-7,3.1-7,7S161,215.6,164.8,215.6z"/>
	<path class="st0" d="M163.7,209.6c0,0.6,0.4,0.9,1,0.9s1-0.3,1-0.9s-0.4-0.7-1.1-0.7h-0.5v-0.7h0.5c0.7,0,1.1-0.3,1.1-0.8
		c0-0.4-0.3-0.8-0.9-0.8s-0.9,0.3-0.9,0.8v0.1h-1c0-0.1,0-0.1,0-0.2c0-1,0.8-1.7,1.9-1.7c1.2,0,1.8,0.6,1.8,1.5c0,0.7-0.4,1.1-1,1.2
		c0.7,0.1,1.1,0.5,1.1,1.2c0,1-0.8,1.6-2,1.6c-1.4,0-2-0.7-2-1.8h1V209.6z"/>
</g>
<g>
	<path class="st15" d="M415.7,215.3c3.9,0,7-3.1,7-7s-3.1-7-7-7s-7,3.1-7,7S411.9,215.3,415.7,215.3z"/>
	<path class="st0" d="M414.6,209.3c0,0.6,0.4,0.9,1,0.9s1-0.3,1-0.9s-0.4-0.7-1.1-0.7H415v-0.7h0.5c0.7,0,1.1-0.3,1.1-0.8
		c0-0.4-0.3-0.8-0.9-0.8s-0.9,0.3-0.9,0.8v0.1h-1c0-0.1,0-0.1,0-0.2c0-1,0.8-1.7,1.9-1.7c1.2,0,1.8,0.6,1.8,1.5c0,0.7-0.4,1.1-1,1.2
		c0.7,0.1,1.1,0.5,1.1,1.2c0,1-0.8,1.6-2,1.6c-1.4,0-2-0.7-2-1.8h1V209.3z"/>
</g>
</svg>
